<svg viewBox="0 0 37 37" width="100%" height="100%" fill="#ffffff" xmlns="http://www.w3.org/2000/svg">
    <rect fill="#ffffff" width="100%" height="100%"></rect>
    <path d="M0 0v1h7v-1zM8 0v1h1v-1zM12 0v1h2v-1zM17 0v1h1v-1zM23 0v1h4v-1zM30 0v1h7v-1zM0 1v1h1v-1zM6 1v1h1v-1zM11 1v1h1v-1zM14 1v1h1v-1zM18 1v1h2v-1zM21 1v1h1v-1zM23 1v1h3v-1zM28 1v1h1v-1zM30 1v1h1v-1zM36 1v1h1v-1zM0 2v1h1v-1zM2 2v1h3v-1zM6 2v1h1v-1zM8 2v1h4v-1zM13 2v1h4v-1zM18 2v1h1v-1zM23 2v1h2v-1zM26 2v1h1v-1zM30 2v1h1v-1zM32 2v1h3v-1zM36 2v1h1v-1zM0 3v1h1v-1zM2 3v1h3v-1zM6 3v1h1v-1zM10 3v1h2v-1zM13 3v1h2v-1zM18 3v1h2v-1zM21 3v1h1v-1zM23 3v1h1v-1zM25 3v1h2v-1zM28 3v1h1v-1zM30 3v1h1v-1zM32 3v1h3v-1zM36 3v1h1v-1zM0 4v1h1v-1zM2 4v1h3v-1zM6 4v1h1v-1zM8 4v1h2v-1zM11 4v1h5v-1zM20 4v1h1v-1zM22 4v1h4v-1zM30 4v1h1v-1zM32 4v1h3v-1zM36 4v1h1v-1zM0 5v1h1v-1zM6 5v1h1v-1zM10 5v1h2v-1zM13 5v1h2v-1zM16 5v1h3v-1zM21 5v1h1v-1zM23 5v1h4v-1zM28 5v1h1v-1zM30 5v1h1v-1zM36 5v1h1v-1zM0 6v1h7v-1zM8 6v1h1v-1zM10 6v1h1v-1zM12 6v1h1v-1zM14 6v1h1v-1zM16 6v1h1v-1zM18 6v1h1v-1zM20 6v1h1v-1zM22 6v1h1v-1zM24 6v1h1v-1zM26 6v1h1v-1zM28 6v1h1v-1zM30 6v1h7v-1zM8 7v1h1v-1zM11 7v1h1v-1zM13 7v1h2v-1zM18 7v1h3v-1zM22 7v1h1v-1zM24 7v1h2v-1zM27 7v1h2v-1zM5 8v1h2v-1zM9 8v1h1v-1zM12 8v1h3v-1zM16 8v1h3v-1zM21 8v1h4v-1zM26 8v1h1v-1zM28 8v1h1v-1zM30 8v1h1v-1zM32 8v1h1v-1zM34 8v1h1v-1zM36 8v1h1v-1zM0 9v1h3v-1zM4 9v1h1v-1zM11 9v1h1v-1zM13 9v1h2v-1zM16 9v1h5v-1zM22 9v1h1v-1zM24 9v1h3v-1zM28 9v1h1v-1zM31 9v1h3v-1zM35 9v1h1v-1zM0 10v1h5v-1zM6 10v1h5v-1zM12 10v1h1v-1zM15 10v1h3v-1zM24 10v1h5v-1zM30 10v1h2v-1zM34 10v1h3v-1zM1 11v1h1v-1zM3 11v1h1v-1zM7 11v1h2v-1zM10 11v1h1v-1zM14 11v1h1v-1zM17 11v1h1v-1zM19 11v1h3v-1zM23 11v1h1v-1zM26 11v1h1v-1zM30 11v1h1v-1zM32 11v1h2v-1zM35 11v1h2v-1zM0 12v1h1v-1zM2 12v1h1v-1zM4 12v1h1v-1zM6 12v1h3v-1zM11 12v1h4v-1zM18 12v1h2v-1zM23 12v1h1v-1zM27 12v1h1v-1zM30 12v1h2v-1zM33 12v1h1v-1zM35 12v1h1v-1zM0 13v1h2v-1zM4 13v1h2v-1zM8 13v1h1v-1zM13 13v1h2v-1zM16 13v1h3v-1zM23 13v1h2v-1zM27 13v1h3v-1zM31 13v1h1v-1zM34 13v1h1v-1zM1 14v1h1v-1zM6 14v1h1v-1zM8 14v1h3v-1zM12 14v1h1v-1zM21 14v1h1v-1zM23 14v1h1v-1zM26 14v1h2v-1zM29 14v1h2v-1zM32 14v1h2v-1zM35 14v1h2v-1zM3 15v1h3v-1zM11 15v1h3v-1zM18 15v1h1v-1zM20 15v1h2v-1zM23 15v1h2v-1zM30 15v1h2v-1zM33 15v1h2v-1zM36 15v1h1v-1zM0 16v1h2v-1zM4 16v1h1v-1zM6 16v1h3v-1zM10 16v1h5v-1zM16 16v1h6v-1zM25 16v1h1v-1zM27 16v1h1v-1zM29 16v1h2v-1zM32 16v1h1v-1zM34 16v1h3v-1zM0 17v1h1v-1zM3 17v1h1v-1zM5 17v1h1v-1zM8 17v1h2v-1zM13 17v1h2v-1zM16 17v1h2v-1zM22 17v1h2v-1zM25 17v1h1v-1zM27 17v1h2v-1zM31 17v1h1v-1zM34 17v1h1v-1zM0 18v1h1v-1zM2 18v1h1v-1zM4 18v1h4v-1zM9 18v1h3v-1zM17 18v1h1v-1zM20 18v1h1v-1zM22 18v1h3v-1zM27 18v1h5v-1zM34 18v1h1v-1zM36 18v1h1v-1zM1 19v1h5v-1zM7 19v1h3v-1zM11 19v1h1v-1zM13 19v1h1v-1zM15 19v1h1v-1zM17 19v1h3v-1zM21 19v1h2v-1zM24 19v1h1v-1zM27 19v1h2v-1zM31 19v1h3v-1zM6 20v1h1v-1zM11 20v1h1v-1zM14 20v1h1v-1zM18 20v1h1v-1zM21 20v1h2v-1zM24 20v1h3v-1zM29 20v1h8v-1zM1 21v1h1v-1zM3 21v1h1v-1zM8 21v1h2v-1zM11 21v1h2v-1zM15 21v1h4v-1zM20 21v1h3v-1zM24 21v1h1v-1zM26 21v1h3v-1zM31 21v1h2v-1zM3 22v1h1v-1zM6 22v1h2v-1zM9 22v1h1v-1zM13 22v1h1v-1zM15 22v1h1v-1zM19 22v1h1v-1zM21 22v1h4v-1zM27 22v1h1v-1zM29 22v1h1v-1zM33 22v1h1v-1zM36 22v1h1v-1zM0 23v1h1v-1zM5 23v1h1v-1zM7 23v1h5v-1zM17 23v1h3v-1zM23 23v1h1v-1zM26 23v1h2v-1zM31 23v1h1v-1zM33 23v1h1v-1zM35 23v1h2v-1zM1 24v1h1v-1zM4 24v1h3v-1zM8 24v1h1v-1zM11 24v1h1v-1zM14 24v1h2v-1zM17 24v1h2v-1zM21 24v1h1v-1zM25 24v1h2v-1zM28 24v1h4v-1zM33 24v1h1v-1zM0 25v1h1v-1zM2 25v1h1v-1zM5 25v1h1v-1zM7 25v1h1v-1zM12 25v1h1v-1zM18 25v1h2v-1zM22 25v1h1v-1zM24 25v1h3v-1zM28 25v1h1v-1zM30 25v1h2v-1zM34 25v1h1v-1zM0 26v1h1v-1zM3 26v1h1v-1zM6 26v1h6v-1zM14 26v1h1v-1zM18 26v1h1v-1zM21 26v1h1v-1zM25 26v1h2v-1zM30 26v1h7v-1zM0 27v1h1v-1zM4 27v1h2v-1zM7 27v1h1v-1zM9 27v1h1v-1zM13 27v1h3v-1zM17 27v1h2v-1zM20 27v1h1v-1zM24 27v1h1v-1zM27 27v1h1v-1zM29 27v1h1v-1zM31 27v1h1v-1zM33 27v1h4v-1zM0 28v1h1v-1zM6 28v1h2v-1zM10 28v1h3v-1zM14 28v1h2v-1zM20 28v1h2v-1zM24 28v1h3v-1zM28 28v1h8v-1zM8 29v1h5v-1zM15 29v1h1v-1zM18 29v1h3v-1zM23 29v1h1v-1zM25 29v1h4v-1zM32 29v1h2v-1zM35 29v1h1v-1zM0 30v1h7v-1zM9 30v1h4v-1zM16 30v1h2v-1zM20 30v1h1v-1zM23 30v1h1v-1zM28 30v1h1v-1zM30 30v1h1v-1zM32 30v1h3v-1zM36 30v1h1v-1zM0 31v1h1v-1zM6 31v1h1v-1zM8 31v1h6v-1zM17 31v1h1v-1zM20 31v1h4v-1zM27 31v1h2v-1zM32 31v1h2v-1zM36 31v1h1v-1zM0 32v1h1v-1zM2 32v1h3v-1zM6 32v1h1v-1zM9 32v1h1v-1zM11 32v1h1v-1zM14 32v1h2v-1zM18 32v1h1v-1zM22 32v1h11v-1zM34 32v1h1v-1zM36 32v1h1v-1zM0 33v1h1v-1zM2 33v1h3v-1zM6 33v1h1v-1zM9 33v1h1v-1zM13 33v1h3v-1zM18 33v1h1v-1zM21 33v1h2v-1zM26 33v1h2v-1zM30 33v1h1v-1zM33 33v1h1v-1zM0 34v1h1v-1zM2 34v1h3v-1zM6 34v1h1v-1zM9 34v1h1v-1zM13 34v1h4v-1zM19 34v1h1v-1zM21 34v1h5v-1zM28 34v1h2v-1zM31 34v1h1v-1zM34 34v1h1v-1zM36 34v1h1v-1zM0 35v1h1v-1zM6 35v1h1v-1zM9 35v1h1v-1zM11 35v1h3v-1zM15 35v1h2v-1zM19 35v1h1v-1zM21 35v1h1v-1zM23 35v1h1v-1zM26 35v1h1v-1zM28 35v1h1v-1zM30 35v1h2v-1zM33 35v1h1v-1zM36 35v1h1v-1zM0 36v1h7v-1zM11 36v1h1v-1zM13 36v1h2v-1zM19 36v1h1v-1zM21 36v1h2v-1zM24 36v1h1v-1zM28 36v1h1v-1zM30 36v1h2v-1zM33 36v1h1v-1zM36 36v1h1v-1z"
          fill="#000000"></path>
</svg>