<svg width="35" height="17" viewBox="0 0 35 17" fill="none" xmlns="http://www.w3.org/2000/svg">
<path d="M7.576 7.384V14.2H8.44V6.064C8.872 5.284 9.244 4.456 9.532 3.592L8.752 3.232C8.164 5.08 7.228 6.724 5.932 8.164L6.184 9.028C6.688 8.512 7.156 7.96 7.576 7.384ZM9.304 6.124V6.964H11.728C11.464 9.94 10.528 12.148 8.92 13.612L9.556 14.164C11.284 12.568 12.292 10.168 12.556 6.964H13.312V13.012C13.312 13.672 13.624 14.008 14.26 14.008H15.748C16.06 13.996 16.312 13.876 16.48 13.66C16.648 13.396 16.78 12.616 16.864 11.344L16.084 11.092C16.048 12.196 15.976 12.832 15.868 13.012C15.772 13.144 15.664 13.216 15.532 13.216H14.488C14.248 13.216 14.14 13.096 14.14 12.856V6.964H16.636V6.124H12.604C12.616 5.884 12.628 5.644 12.628 5.404V3.232H11.8V5.404C11.8 5.644 11.788 5.884 11.776 6.124H9.304ZM14.2 3.448L13.636 3.988C14.428 4.552 15.04 5.092 15.496 5.608L16.084 5.02C15.58 4.492 14.944 3.964 14.2 3.448ZM19.348 7.012L18.928 7.624C19.78 7.96 20.608 8.44 21.412 9.04L21.856 8.344C21.1 7.828 20.26 7.384 19.348 7.012ZM20.452 5.332L20.044 5.944C20.884 6.28 21.688 6.76 22.48 7.36L22.924 6.676C22.18 6.148 21.364 5.704 20.452 5.332ZM23.764 5.332V7.852C23.74 8.5 23.644 9.112 23.476 9.664H18.364V10.504H23.128C22.984 10.804 22.804 11.08 22.588 11.344C21.796 12.196 20.416 12.88 18.424 13.396L18.916 14.164C20.896 13.636 22.324 12.892 23.2 11.944C23.26 11.872 23.32 11.788 23.392 11.704C24.976 12.436 26.5 13.276 27.988 14.224L28.576 13.576C27.148 12.676 25.564 11.836 23.824 11.056C23.92 10.888 24.004 10.696 24.088 10.504H28.84V9.664H24.376C24.508 9.112 24.592 8.512 24.616 7.852V5.332H23.764ZM18.82 3.904V4.708H27.064C26.896 5.308 26.692 5.86 26.44 6.352L27.256 6.58C27.544 5.872 27.784 5.164 27.964 4.444V3.904H18.82Z" fill="white"/>
<rect x="0.85" y="0.35" width="33.3" height="16.3" rx="3.65" stroke="white" stroke-width="0.7"/>
</svg>
