<svg width="44" height="44" viewBox="0 0 44 44" fill="none" xmlns="http://www.w3.org/2000/svg">
<rect width="44" height="44" fill="white"/>
<path d="M38 6H6V38H38V6Z" fill="white" fill-opacity="0.01"/>
<path d="M18.1905 34.7808C15.9564 34.1157 13.9678 32.8808 12.3932 31.2446C12.9806 30.5484 13.3346 29.6489 13.3346 28.6667C13.3346 26.4575 11.5438 24.6667 9.33464 24.6667C9.201 24.6667 9.0689 24.6732 8.93863 24.686C8.76116 23.8184 8.66797 22.9201 8.66797 22C8.66797 20.6063 8.88182 19.2625 9.2785 17.9996C9.29718 17.9999 9.31589 18 9.33464 18C11.5438 18 13.3346 16.2091 13.3346 14C13.3346 13.3658 13.187 12.7661 12.9244 12.2333C14.4663 10.7996 16.3483 9.7266 18.436 9.14868C19.0976 10.4454 20.4458 11.3333 22.0013 11.3333C23.5568 11.3333 24.905 10.4454 25.5666 9.14868C27.6543 9.7266 29.5363 10.7996 31.0782 12.2333C30.8156 12.7661 30.668 13.3658 30.668 14C30.668 16.2091 32.4588 18 34.668 18C34.6867 18 34.7054 17.9999 34.7241 17.9996C35.1208 19.2625 35.3346 20.6063 35.3346 22C35.3346 22.9201 35.2414 23.8184 35.064 24.686C34.9337 24.6732 34.8016 24.6667 34.668 24.6667C32.4588 24.6667 30.668 26.4575 30.668 28.6667C30.668 29.6489 31.022 30.5484 31.6094 31.2446C30.0348 32.8808 28.0462 34.1157 25.8121 34.7808C25.2965 33.1679 23.7853 32 22.0013 32C20.2173 32 18.7061 33.1679 18.1905 34.7808Z" stroke="#111111" stroke-width="2" stroke-linejoin="round"/>
<path d="M21.9987 26.6667C24.576 26.6667 26.6654 24.5774 26.6654 22C26.6654 19.4227 24.576 17.3334 21.9987 17.3334C19.4214 17.3334 17.332 19.4227 17.332 22C17.332 24.5774 19.4214 26.6667 21.9987 26.6667Z" stroke="#111111" stroke-width="2" stroke-linejoin="round"/>
</svg>
