<svg width="64" height="26" viewBox="0 0 64 26" fill="none" xmlns="http://www.w3.org/2000/svg">
<path d="M52.0187 26H11.9813C5.29173 26 0 20.1743 0 13.0539C0 5.82573 5.39158 0 11.9813 0H52.0187C58.7083 0 64 5.82573 64 12.9461C64 20.1743 58.6084 26 52.0187 26Z" fill="url(#paint0_linear)"/>
<g clip-path="url(#clip0)">
<path d="M12.5016 6.5H14.3016V19.2H12.5016V13C12.4016 13 12.2016 13.1 12.1016 13.1C12.0016 13.1 11.8016 13.1 11.7016 13.1H11.0016V11.4H11.5016C11.7016 11.4 12.0016 11.3 12.2016 11.1C12.4016 10.9 12.5016 10.5 12.5016 9.9V6.5ZM15.7016 14.8H17.5016V15.7C17.5016 16.1 17.5016 16.5 17.5016 16.9C17.5016 17.3 17.4016 17.7 17.2016 18C17.1016 18.3 16.8016 18.6 16.5016 18.8C16.2016 19 15.8016 19.1 15.3016 19.1H14.7016V17.5H15.3016C15.4016 17.5 15.5016 17.5 15.5016 17.4C15.5016 17.3 15.6016 17.3 15.7016 17.1C15.7016 17 15.8016 16.8 15.8016 16.6C15.8016 16.4 15.8016 16.1 15.8016 15.7V14.8H15.7016ZM18.5016 14.6H14.9016V12.9H18.4016V12H17.4016V12.3H15.5016V6.5H17.3016V6.9H22.0016C22.5016 6.9 22.8016 7 23.0016 7.3C23.2016 7.5 23.3016 7.9 23.3016 8.3V12.4H21.5016V12H20.3016V12.9H24.1016V14.6H20.3016V19.3H18.5016V14.6ZM17.4016 8.6V10.3H21.6016V8.6H17.4016ZM23.0016 15.8C23.0016 16.2 23.0016 16.5 23.0016 16.7C23.0016 16.9 23.1016 17.1 23.1016 17.2C23.1016 17.3 23.2016 17.4 23.3016 17.5C23.4016 17.6 23.4016 17.6 23.5016 17.6H24.0016V19.2H23.3016C22.8016 19.2 22.4016 19.1 22.1016 18.9C21.8016 18.7 21.6016 18.4 21.4016 18.1C21.3016 17.8 21.2016 17.4 21.1016 17C21.1016 16.6 21.1016 16.2 21.1016 15.8V14.8H23.0016V15.8Z" fill="white"/>
<path d="M38.1016 19.6C37.8016 19.5 37.4016 19.3 36.9016 19.1C36.5016 18.9 36.0016 18.7 35.5016 18.5C35.0016 18.3 34.5016 18.1 34.0016 17.9C33.5016 17.7 33.1016 17.5 32.7016 17.3C32.1016 18 31.2016 18.5 30.3016 18.9C29.3016 19.3 28.2016 19.4 26.8016 19.4H26.0016V17.6H26.7016C27.8016 17.6 28.8016 17.4 29.6016 17.1C30.4016 16.8 31.1016 16.3 31.6016 15.5H26.0016V13.8H29.7016C29.5016 13.7 29.3016 13.5 29.0016 13.4C28.7016 13.2 28.5016 13.1 28.2016 12.9C27.9016 12.7 27.7016 12.6 27.4016 12.5C27.1016 12.4 26.9016 12.2 26.7016 12.1L27.6016 10.8C27.9016 10.9 28.2016 11.1 28.5016 11.3C28.8016 11.5 29.1016 11.6 29.5016 11.8C29.8016 12 30.1016 12.1 30.4016 12.3C30.7016 12.4 31.0016 12.5 31.3016 12.7L30.5016 13.8H32.3016C32.4016 13.3 32.6016 12.7 32.6016 12.1C32.6016 11.5 32.7016 10.8 32.7016 10V8.8H34.6016V10.1C34.6016 11.5 34.5016 12.7 34.2016 13.8H38.6016V15.6H33.7016L33.6016 15.8L38.7016 17.8L38.1016 19.6ZM31.4016 11.9C31.1016 11.7 30.9016 11.6 30.5016 11.4C30.2016 11.2 29.9016 11 29.5016 10.8C29.2016 10.6 28.8016 10.4 28.5016 10.3C28.2016 10.1 27.9016 10 27.6016 9.8L28.4016 8.6H26.5016V7H37.0016C37.5016 7 37.9016 7.1 38.2016 7.4C38.4016 7.6 38.5016 8 38.5016 8.4V10.4H36.7016V8.6H29.1016C29.6016 8.9 30.2016 9.2 30.8016 9.5C31.4016 9.8 31.9016 10.1 32.4016 10.4L31.4016 11.9Z" fill="white"/>
</g>
<path d="M53.9999 12.4002H44.5999C44.1999 12.4002 43.7999 12.0002 43.7999 11.6002C43.7999 11.2002 44.1999 10.8002 44.5999 10.8002H51.9999L50.0999 8.9002C49.7999 8.6002 49.7999 8.1002 50.0999 7.8002C50.3999 7.5002 50.8999 7.5002 51.1999 7.8002L54.4999 11.1002C54.6999 11.3002 54.7999 11.7002 54.6999 12.0002C54.5999 12.2002 54.2999 12.4002 53.9999 12.4002Z" fill="white"/>
<path d="M47.8 18.5006C47.6 18.5006 47.4 18.4006 47.2 18.3006L44 15.0006C43.8 14.8006 43.7 14.4006 43.8 14.1006C43.9 13.8006 44.2 13.6006 44.5 13.6006H54C54.4 13.6006 54.8 14.0006 54.8 14.4006C54.8 14.8006 54.4 15.2006 54 15.2006H46.5L48.4 17.1006C48.7 17.4006 48.7 17.9006 48.4 18.2006C48.2 18.4006 48 18.5006 47.8 18.5006Z" fill="white"/>
<defs>
<linearGradient id="paint0_linear" x1="64" y1="26" x2="-3.31551e-07" y2="8.16125e-07" gradientUnits="userSpaceOnUse">
<stop stop-color="#60BAF8"/>
<stop offset="1" stop-color="#3C9EE1"/>
</linearGradient>
<clipPath id="clip0">
<rect width="27.8" height="13.1" fill="white" transform="translate(11.0016 6.5)"/>
</clipPath>
</defs>
</svg>
