<svg width="64" height="26" viewBox="0 0 64 26" fill="none" xmlns="http://www.w3.org/2000/svg">
<path d="M51.5195 26H12.4805C5.59126 26 0 20.4 0 13.5V12.5C0 5.6 5.59126 0 12.4805 0H51.5195C58.4087 0 64 5.6 64 12.5V13.5C64 20.4 58.4087 26 51.5195 26Z" fill="url(#paint0_radial)"/>
<path d="M53.9158 12.4998H44.5304C44.1311 12.4998 43.7317 12.0998 43.7317 11.6998C43.7317 11.2998 44.1311 10.8998 44.5304 10.8998H51.9189L50.0219 8.9998C49.7223 8.6998 49.7223 8.1998 50.0219 7.8998C50.3214 7.5998 50.8206 7.5998 51.1201 7.8998L54.415 11.1998C54.6147 11.3998 54.7145 11.7998 54.6147 12.0998C54.5148 12.2998 54.2153 12.4998 53.9158 12.4998Z" fill="white"/>
<path d="M47.7254 18.4996C47.5257 18.4996 47.3261 18.3996 47.1264 18.2996L43.9314 14.9996C43.7317 14.7996 43.6318 14.3996 43.7317 14.0996C43.8315 13.7996 44.1311 13.5996 44.4306 13.5996H53.9158C54.3151 13.5996 54.7145 13.9996 54.7145 14.3996C54.7145 14.7996 54.3151 15.1996 53.9158 15.1996H46.4275L48.3245 17.0996C48.624 17.3996 48.624 17.8996 48.3245 18.1996C48.1248 18.4996 47.9251 18.4996 47.7254 18.4996Z" fill="white"/>
<path d="M12.8799 6.59961H14.6771V19.2996H12.8799V13.0996C12.78 13.0996 12.5803 13.1996 12.4805 13.1996C12.3806 13.1996 12.181 13.1996 12.0811 13.1996H11.3822V11.4996H11.8814C12.0811 11.4996 12.3806 11.3996 12.5803 11.1996C12.78 10.9996 12.8799 10.5996 12.8799 9.99961V6.59961ZM16.0749 14.9996H17.8721V15.8996C17.8721 16.2996 17.8721 16.6996 17.8721 17.0996C17.8721 17.4996 17.7722 17.8996 17.5725 18.1996C17.4727 18.4996 17.1732 18.7996 16.8736 18.9996C16.5741 19.1996 16.1747 19.2996 15.6755 19.2996H14.9766V17.6996H15.5757C15.6755 17.6996 15.7753 17.6996 15.7753 17.5996C15.7753 17.4996 15.8752 17.4996 15.975 17.2996C15.975 17.1996 16.0749 16.9996 16.0749 16.7996C16.0749 16.5996 16.0749 16.2996 16.0749 15.8996V14.9996ZM18.8705 14.6996H15.376V12.9996H18.8705V12.0996H17.7722V12.3996H15.975V6.59961H17.7722V6.99961H22.4649C22.9641 6.99961 23.2636 7.09961 23.4633 7.39961C23.663 7.59961 23.7629 7.99961 23.7629 8.39961V12.4996H21.9657V12.1996H20.6677V12.9996H24.4618V14.6996H20.6677V19.3996H18.8705V14.6996ZM17.7722 8.69961V10.3996H21.9657V8.69961H17.7722ZM23.3635 15.8996C23.3635 16.2996 23.3635 16.5996 23.3635 16.7996C23.3635 16.9996 23.4633 17.1996 23.4633 17.2996C23.4633 17.3996 23.5632 17.4996 23.663 17.5996C23.7629 17.6996 23.7629 17.6996 23.8627 17.6996H24.3619V19.2996H23.663C23.1638 19.2996 22.7644 19.1996 22.4649 18.9996C22.1654 18.7996 21.9657 18.4996 21.766 18.1996C21.6661 17.8996 21.5663 17.4996 21.4664 17.0996C21.4664 16.6996 21.4664 16.2996 21.4664 15.8996V14.9996H23.2636V15.8996H23.3635Z" fill="white"/>
<path d="M38.2402 19.8C37.3416 19.4 36.443 19 35.5444 18.6C34.6458 18.2 33.847 17.9 33.1481 17.6C32.4492 18.3 31.6505 18.8 30.5522 19.1C29.5538 19.4 28.3556 19.6 26.9578 19.6H26.1591V17.8H26.9578C29.0545 17.8 30.652 17.3 31.6505 16.3H26.2589V14.8H29.4539L27.457 13.7L28.3556 12.4C28.5553 12.5 28.8548 12.6 29.0545 12.8C29.2542 13 29.5538 13.1 29.8533 13.2C30.1528 13.3 30.4523 13.5 30.652 13.7C30.9516 13.9 31.1513 14 31.4508 14.2L31.0514 14.8H32.6489C32.9484 14.1 33.0483 13.4 33.0483 12.5V11.7H34.9453V12.6C34.9453 13 34.9453 13.4 34.8455 13.8C34.8455 14.2 34.7456 14.5 34.6458 14.9H38.9391V16.4H34.3463C35.0452 16.7 35.7441 16.9 36.5428 17.2C37.3416 17.5 38.0405 17.8 38.8392 18.1L38.2402 19.8ZM31.7503 13.7C31.2511 13.4 30.7519 13.1 30.2527 12.8C29.7534 12.5 29.2542 12.2 28.755 12L29.1544 11.3H26.7581V9.8H31.8502V9H27.3572V7.5H31.8502V6.5H33.6474V7.5H38.34V9H33.6474V9.9H37.3416C37.8408 9.9 38.2402 10 38.4399 10.2C38.6396 10.4 38.7394 10.7 38.7394 11.1V12.9H37.0421V11.4H30.8517C31.1513 11.6 31.4508 11.7 31.7503 11.9C32.0499 12.1 32.3494 12.2 32.6489 12.4L31.7503 13.7Z" fill="white"/>
<defs>
<radialGradient id="paint0_radial" cx="0" cy="0" r="1" gradientUnits="userSpaceOnUse" gradientTransform="translate(3.99376 4) rotate(17.508) scale(66.4807 55.4402)">
<stop stop-color="#02AAB0"/>
<stop offset="0.966695" stop-color="#00CDAC"/>
</radialGradient>
</defs>
</svg>
