<svg width="64" height="26" viewBox="0 0 64 26" fill="none" xmlns="http://www.w3.org/2000/svg">
<path d="M52.0187 26H11.9813C5.29173 26 0 20.1743 0 13.0539C0 5.82573 5.39158 0 11.9813 0H52.0187C58.7083 0 64 5.82573 64 12.9461C64 20.1743 58.6084 26 52.0187 26Z" fill="url(#paint0_linear)"/>
<path d="M12.8 6.60039H14.7V9.80039V10.0004V19.2004H12.9V13.0004C12.8 13.0004 12.6 13.1004 12.5 13.1004C12.4 13.1004 12.2 13.1004 12.1 13.1004H11.4V11.4004H11.8C12 11.4004 12.3 11.3004 12.5 11.1004C12.7 10.9004 12.8 10.5004 12.8 9.90039V6.60039ZM17.2 11.2004H15.2V9.40039H17.2V6.50039H19V9.40039H21.9C21.6 9.10039 21.3 8.80039 21 8.50039C20.7 8.20039 20.4 7.90039 20.1 7.60039L21.3 6.40039C21.4 6.50039 21.6 6.70039 21.8 6.90039C22 7.10039 22.2 7.20039 22.3 7.40039C22.5 7.60039 22.7 7.80039 22.9 7.90039C23.1 8.10039 23.2 8.30039 23.4 8.40039L22.4 9.40039H24.2V11.2004H21.6V16.9004C21.6 17.1004 21.6 17.2004 21.7 17.3004C21.8 17.4004 21.9 17.4004 22 17.4004H24.4V19.1004H21.4C20.9 19.1004 20.5 19.0004 20.3 18.7004C20.1 18.4004 19.9 18.0004 19.9 17.4004V11.2004H19.1V12.2004C19.1 13.7004 19 14.9004 18.9 15.8004C18.8 16.7004 18.6 17.4004 18.3 17.9004C18 18.4004 17.7 18.7004 17.3 18.9004C16.9 19.1004 16.4 19.2004 15.9 19.2004H15V17.5004H15.5C15.8 17.5004 16.1 17.4004 16.3 17.2004C16.5 17.0004 16.7 16.7004 16.8 16.3004C16.9 15.9004 17 15.3004 17.1 14.7004C17.2 14.0004 17.2 13.2004 17.2 12.2004V11.2004Z" fill="white"/>
<path d="M38.3001 19.7C38.0001 19.6 37.6001 19.4 37.1001 19.2C36.7001 19 36.2001 18.8 35.7001 18.6C35.2001 18.4 34.7001 18.2 34.2001 18C33.7001 17.8 33.3001 17.6 32.9001 17.4C32.3001 18.1 31.4001 18.6 30.5001 19C29.5001 19.4 28.4001 19.5 27.0001 19.5H26.2001V17.7H26.9001C28.0001 17.7 29.0001 17.5 29.8001 17.2C30.6001 16.9 31.3001 16.4 31.8001 15.6H26.3001V13.8H30.0001C29.8001 13.7 29.5001 13.5 29.2001 13.4C28.9001 13.2 28.7001 13.1 28.4001 12.9C28.1001 12.7 27.9001 12.6 27.6001 12.5C27.3001 12.4 27.1001 12.2 26.9001 12.1L27.8001 10.8C28.1001 10.9 28.4001 11.1 28.7001 11.3C29.0001 11.5 29.3001 11.6 29.7001 11.8C30.0001 12 30.3001 12.1 30.6001 12.3C30.9001 12.5 31.2001 12.6 31.5001 12.8L30.7001 13.9H32.5001C32.6001 13.4 32.8001 12.8 32.8001 12.2C32.9001 11.6 32.9001 10.9 32.9001 10.1V8.9H35.0001V10.2C35.0001 11.6 34.9001 12.8 34.6001 13.9H39.0001V15.7H34.1001L34.0001 15.8L39.1001 17.8L38.3001 19.7ZM31.7001 11.9C31.4001 11.7 31.2001 11.6 30.8001 11.4C30.5001 11.2 30.2001 11 29.8001 10.8C29.5001 10.6 29.2001 10.4 28.8001 10.3C28.6001 10.1 28.3001 10 28.0001 9.8L28.8001 8.6H26.9001V7H37.2001C37.7001 7 38.1001 7.1 38.4001 7.4C38.6001 7.6 38.7001 8 38.7001 8.4V10.4H36.9001V8.7H29.3001C29.8001 9 30.4001 9.3 31.0001 9.6C31.6001 9.9 32.1001 10.2 32.6001 10.5L31.7001 11.9Z" fill="white"/>
<path d="M53.9999 12.4002H44.5999C44.1999 12.4002 43.7999 12.0002 43.7999 11.6002C43.7999 11.2002 44.1999 10.8002 44.5999 10.8002H51.9999L50.0999 8.9002C49.7999 8.6002 49.7999 8.1002 50.0999 7.8002C50.3999 7.5002 50.8999 7.5002 51.1999 7.8002L54.4999 11.1002C54.6999 11.3002 54.7999 11.7002 54.6999 12.0002C54.5999 12.2002 54.2999 12.4002 53.9999 12.4002Z" fill="white"/>
<path d="M47.8 18.5006C47.6 18.5006 47.4 18.4006 47.2 18.3006L44 15.0006C43.8 14.8006 43.7 14.4006 43.8 14.1006C43.9 13.8006 44.2 13.6006 44.5 13.6006H54C54.4 13.6006 54.8 14.0006 54.8 14.4006C54.8 14.8006 54.4 15.2006 54 15.2006H46.5L48.4 17.1006C48.7 17.4006 48.7 17.9006 48.4 18.2006C48.2 18.4006 48 18.5006 47.8 18.5006Z" fill="white"/>
<defs>
<linearGradient id="paint0_linear" x1="0" y1="13" x2="64" y2="13" gradientUnits="userSpaceOnUse">
<stop stop-color="#FF9966"/>
<stop offset="1" stop-color="#FF5E62"/>
</linearGradient>
</defs>
</svg>
