<svg width="64" height="26" viewBox="0 0 64 26" fill="none" xmlns="http://www.w3.org/2000/svg">
<path d="M52.0187 26H11.9813C5.29173 26 0 20.1743 0 13.0539C0 5.82573 5.39158 0 11.9813 0H52.0187C58.7083 0 64 5.82573 64 12.9461C64 20.1743 58.6084 26 52.0187 26Z" fill="url(#paint0_radial)"/>
<g clip-path="url(#clip0)">
<path d="M12.5016 12.4C12.5016 13.6 12.5016 14.6 12.5016 15.3C12.5016 16 12.4016 16.6 12.3016 17C12.2016 17.5 12.1016 17.7 12.0016 17.9C11.8016 18 11.6016 18.1 11.3016 18.1H11.0016V16.8H11.2016C11.2016 16.8 11.3016 16.8 11.3016 16.7C11.3016 16.6 11.4016 16.4 11.4016 16.1C11.4016 15.8 11.4016 15.4 11.4016 14.8C11.4016 14.2 11.4016 13.5 11.4016 12.5H12.5016V12.4ZM11.5016 7.4H13.4016C13.6016 7.4 13.8016 7.3 13.9016 7.2C14.0016 7.1 14.1016 7 14.1016 6.7H15.8016C15.8016 7.4 15.7016 7.9 15.5016 8.3C15.2016 8.7 14.8016 8.9 14.3016 9V10.1H15.5016V9H15.7016C15.9016 9 16.1016 8.9 16.3016 8.7C16.5016 8.5 16.5016 8.2 16.5016 7.7V6.5H18.3016V7.3H21.9016C22.2016 7.3 22.4016 7.4 22.5016 7.5C22.7016 7.6 22.8016 7.7 22.9016 7.9C23.0016 8.1 23.0016 8.2 23.0016 8.4C23.0016 8.6 22.9016 8.7 22.8016 8.9L21.9016 9.8H22.1016C22.7016 9.8 23.1016 9.9 23.3016 10.1C23.5016 10.3 23.6016 10.6 23.6016 11.1V15.5H23.4016C23.5016 15.7 23.6016 15.9 23.7016 16.1C23.8016 16.3 23.9016 16.6 24.0016 16.8C24.1016 17 24.2016 17.3 24.3016 17.5C24.4016 17.7 24.5016 18 24.6016 18.1L23.2016 18.8C23.0016 18.5 23.0016 18.3 22.9016 18C22.8016 17.7 22.7016 17.5 22.6016 17.2C22.5016 16.9 22.4016 16.7 22.3016 16.5C22.2016 16.3 22.1016 16.1 22.1016 15.9L23.3016 15.5H22.0016V15.1H20.4016L21.4016 16.9L20.1016 17.6C20.0016 17.5 20.0016 17.4 19.9016 17.2C19.8016 17 19.7016 16.9 19.6016 16.7C19.5016 16.5 19.4016 16.3 19.3016 16.1C19.2016 15.9 19.2016 15.8 19.1016 15.6L20.1016 15.1H16.2016V13.7H22.0016V13.1H16.3016V11.7H22.0016V11.2H16.5016V10.7C16.4016 10.7 16.3016 10.7 16.2016 10.8C16.1016 10.8 16.0016 10.8 15.9016 10.8H15.6016V11.8H14.3016V19.4H12.7016V11.8H11.4016V10.1H12.8016V9H11.5016V7.4ZM17.1016 15.9C17.0016 16.4 16.9016 16.8 16.7016 17.3C16.5016 17.8 16.3016 18.3 16.1016 18.7L14.8016 18.2C15.0016 17.9 15.1016 17.5 15.3016 17.1C15.5016 16.7 15.6016 16.2 15.7016 15.8C15.4016 15.8 15.2016 15.8 15.1016 15.7C14.9016 15.6 14.8016 15.4 14.7016 15.2C14.6016 15 14.6016 14.6 14.5016 14.2C14.5016 13.8 14.5016 13.2 14.5016 12.5H15.5016C15.5016 12.9 15.5016 13.3 15.5016 13.6C15.5016 13.9 15.5016 14.1 15.5016 14.2C15.5016 14.3 15.5016 14.4 15.6016 14.5L15.7016 14.6H16.0016V15.7L17.1016 15.9ZM22.3016 19.5H18.9016C18.3016 19.5 17.9016 19.4 17.6016 19.2C17.3016 19 17.2016 18.5 17.2016 18V15.6H18.8016V17.3C18.8016 17.5 18.8016 17.7 18.9016 17.8C19.0016 17.9 19.2016 17.9 19.4016 17.9H22.3016V19.5ZM18.2016 8.8C18.1016 9.2 18.0016 9.5 17.8016 9.7H19.7016L20.7016 8.7H18.2016V8.8Z" fill="white"/>
<path d="M31.4016 11.4002C31.4016 11.8002 31.7016 12.0002 32.4016 12.2002C32.8016 12.1002 33.0016 11.9002 33.2016 11.8002C33.4016 11.6002 33.4016 11.4002 33.4016 11.2002V10.7002H29.5016C29.4016 11.2002 29.3016 11.6002 29.2016 11.9002C29.1016 12.3002 28.9016 12.6002 28.7016 12.9002C28.5016 13.2002 28.2016 13.4002 27.9016 13.5002C27.6016 13.6002 27.2016 13.7002 26.8016 13.7002H25.9016V11.9002H26.7016C26.9016 11.9002 27.1016 11.8002 27.3016 11.6002C27.4016 11.4002 27.5016 11.2002 27.6016 10.9002C27.7016 10.6002 27.7016 10.2002 27.7016 9.8002C27.7016 9.4002 27.7016 8.9002 27.7016 8.4002H26.5016V6.7002H35.8016C36.0016 6.7002 36.1016 6.7002 36.2016 6.8002C36.3016 6.9002 36.4016 7.0002 36.5016 7.1002C36.6016 7.2002 36.6016 7.3002 36.6016 7.5002C36.6016 7.6002 36.6016 7.8002 36.6016 7.9002L36.3016 8.8002H37.2016C37.6016 8.8002 38.0016 8.9002 38.1016 9.1002C38.3016 9.3002 38.4016 9.6002 38.4016 10.1002V11.9002C38.4016 12.1002 38.4016 12.3002 38.3016 12.4002C38.3016 12.6002 38.2016 12.7002 38.0016 12.9002C37.9016 13.1002 37.7016 13.2002 37.5016 13.4002C37.3016 13.6002 37.0016 13.7002 36.6016 13.9002L35.8016 12.8002V13.9002H35.0016C34.0016 13.9002 33.2016 13.8002 32.5016 13.7002C32.1016 13.8002 31.7016 13.8002 31.2016 13.9002C30.7016 14.0002 30.2016 14.0002 29.6016 14.0002H29.0016V12.5002H29.6016H30.0016C29.7016 12.2002 29.6016 11.8002 29.6016 11.4002V11.1002H31.4016V11.4002ZM28.9016 14.0002V14.2002H36.1016C36.6016 14.2002 37.0016 14.3002 37.3016 14.6002C37.6016 14.8002 37.7016 15.2002 37.7016 15.8002V17.6002H39.0016V19.2002H26.0016V17.6002H27.2016V14.0002H28.9016ZM28.9016 17.6002H30.2016V15.7002H28.9016V17.6002ZM29.7016 8.4002C29.7016 8.6002 29.7016 8.7002 29.7016 8.9002C29.7016 9.0002 29.7016 9.2002 29.7016 9.3002H33.7016C33.9016 9.3002 34.1016 9.3002 34.3016 9.4002L34.6016 8.4002H29.7016ZM31.8016 17.6002H33.1016V15.7002H31.8016V17.6002ZM34.7016 15.7002V17.6002H36.0016V15.7002H34.7016ZM35.1016 10.3002V10.4002V10.5002V11.0002C35.1016 11.2002 35.1016 11.5002 35.0016 11.7002C34.9016 11.9002 34.8016 12.1002 34.7016 12.3002H35.0016H35.6016C35.9016 12.1002 36.0016 12.0002 36.2016 11.8002C36.4016 11.6002 36.4016 11.5002 36.4016 11.3002V10.3002H35.1016Z" fill="white"/>
</g>
<path d="M53.9999 12.4002H44.5999C44.1999 12.4002 43.7999 12.0002 43.7999 11.6002C43.7999 11.2002 44.1999 10.8002 44.5999 10.8002H51.9999L50.0999 8.9002C49.7999 8.6002 49.7999 8.1002 50.0999 7.8002C50.3999 7.5002 50.8999 7.5002 51.1999 7.8002L54.4999 11.1002C54.6999 11.3002 54.7999 11.7002 54.6999 12.0002C54.5999 12.2002 54.2999 12.4002 53.9999 12.4002Z" fill="white"/>
<path d="M47.8 18.5006C47.6 18.5006 47.4 18.4006 47.2 18.3006L44 15.0006C43.8 14.8006 43.7 14.4006 43.8 14.1006C43.9 13.8006 44.2 13.6006 44.5 13.6006H54C54.4 13.6006 54.8 14.0006 54.8 14.4006C54.8 14.8006 54.4 15.2006 54 15.2006H46.5L48.4 17.1006C48.7 17.4006 48.7 17.9006 48.4 18.2006C48.2 18.4006 48 18.5006 47.8 18.5006Z" fill="white"/>
<defs>
<radialGradient id="paint0_radial" cx="0" cy="0" r="1" gradientUnits="userSpaceOnUse" gradientTransform="translate(3.99376 4) rotate(17.508) scale(66.4807 55.4402)">
<stop stop-color="#FFA435"/>
<stop offset="0.966695" stop-color="#FF9635"/>
</radialGradient>
<clipPath id="clip0">
<rect width="28" height="13" fill="white" transform="translate(11.0016 6.5)"/>
</clipPath>
</defs>
</svg>
