<svg width="42" height="22" viewBox="0 0 42 22" fill="none" xmlns="http://www.w3.org/2000/svg">
<rect width="42" height="22" rx="5" fill="#4EC3C8"/>
<path d="M16.723 10.904V9.838H18.374C18.543 9.838 18.751 9.838 18.998 9.851C19.128 9.864 19.232 9.864 19.284 9.864C19.518 9.864 19.518 9.864 19.661 9.877C19.622 9.513 19.609 9.201 19.609 8.655V6.809C19.609 6.211 19.622 5.951 19.661 5.548C19.284 5.6 18.855 5.613 18.231 5.613H14.084C13.382 5.613 13.018 5.6 12.641 5.548C12.68 5.925 12.693 6.237 12.693 6.731V8.629C12.693 9.175 12.68 9.5 12.641 9.89C12.992 9.851 13.395 9.838 13.967 9.838H15.345V10.904H13.2C12.615 10.904 12.199 10.878 11.783 10.839V12.282C12.199 12.23 12.693 12.204 13.2 12.204H14.747C14.292 12.815 14.006 13.127 13.499 13.582C12.784 14.232 12.108 14.7 11.263 15.142C11.744 15.675 11.822 15.792 12.147 16.429C12.732 16.078 13.122 15.792 13.707 15.272C14.474 14.583 14.851 14.128 15.371 13.257C15.358 14.037 15.345 14.492 15.345 14.635V15.857C15.345 16.286 15.319 16.65 15.267 17.066H16.801C16.749 16.663 16.723 16.286 16.723 15.87V14.635C16.723 14.297 16.71 13.647 16.684 13.27C17.217 14.102 17.581 14.531 18.244 15.116C18.699 15.519 18.972 15.727 19.895 16.351C20.194 15.753 20.389 15.454 20.766 14.96C19.947 14.57 19.401 14.219 18.686 13.634C18.114 13.153 17.854 12.893 17.295 12.204H19.037C19.44 12.204 19.934 12.23 20.415 12.282V10.826C19.986 10.878 19.479 10.904 18.998 10.904H16.723ZM14.058 6.887H18.218V8.564H14.058V6.887ZM9.82 15.532C9.82 16.143 9.794 16.533 9.742 17.053H11.237C11.185 16.533 11.172 16.104 11.172 15.545V8.408C11.653 7.459 11.9 6.874 12.173 5.99C12.29 5.587 12.29 5.587 12.368 5.405L10.912 4.937C10.847 5.392 10.665 6.055 10.418 6.705C9.885 8.109 9.183 9.201 8.221 10.15C8.533 10.748 8.598 10.93 8.845 11.723C9.313 11.229 9.521 10.943 9.846 10.41C9.82 11.164 9.82 11.411 9.82 11.84V15.532ZM28.098 6.705H31.777C32.427 6.705 32.778 6.718 33.129 6.77V5.652C32.752 5.704 32.349 5.73 31.777 5.73H28.098C28.098 5.392 28.111 5.223 28.163 5.002H26.655C26.694 5.249 26.707 5.392 26.72 5.73H23.249C22.664 5.73 22.261 5.704 21.897 5.652V6.757C22.248 6.718 22.599 6.705 23.21 6.705H26.72V7.082H23.912C23.34 7.082 23.054 7.069 22.664 7.03V7.992C23.015 7.953 23.366 7.94 23.912 7.94H31.062C31.595 7.94 31.946 7.953 32.297 7.992V7.03C31.907 7.069 31.634 7.082 31.062 7.082H28.098V6.705ZM30.685 15.246C31.504 15.246 31.595 15.246 31.985 15.285C31.946 14.986 31.933 14.661 31.933 13.842V12.061C31.933 11.346 31.946 11.021 31.985 10.657C31.621 10.696 31.426 10.696 30.607 10.696H24.393C23.561 10.696 23.366 10.696 23.015 10.657C23.054 11.073 23.067 11.398 23.067 11.983V13.92C23.067 14.583 23.054 14.934 23.015 15.285C23.392 15.259 23.665 15.246 24.289 15.246H25.108C24.185 15.675 23.275 15.857 21.507 15.961C21.871 16.351 22.066 16.624 22.3 17.105C24.419 16.767 25.16 16.546 26.486 15.844L25.472 15.246H29.086L28.566 16.117C30.529 16.507 31.426 16.715 32.778 17.144L33.389 16.013C31.907 15.623 30.997 15.415 30.126 15.272C30.074 15.259 30.074 15.259 30.022 15.246H30.685ZM24.419 11.593H30.581V11.983H24.419V11.593ZM24.419 12.75H30.581V13.14H24.419V12.75ZM24.419 13.907H30.581V14.323H24.419V13.907ZM32.7 9.084C32.7 8.72 32.7 8.512 32.739 8.265C32.453 8.304 32.05 8.317 31.426 8.317H23.535C22.924 8.317 22.521 8.304 22.248 8.265C22.274 8.525 22.287 8.746 22.287 9.084V9.552C22.287 9.89 22.274 10.111 22.248 10.345C22.612 10.332 22.911 10.319 23.535 10.319H31.439C31.933 10.319 32.375 10.332 32.739 10.345C32.7 10.124 32.7 9.916 32.7 9.552V9.084ZM25.277 9.526H23.548V9.11H25.277V9.526ZM28.332 9.526H26.486V9.11H28.332V9.526ZM31.4 9.526H29.541V9.11H31.4V9.526Z" fill="white"/>
</svg>
