<svg width="42" height="22" viewBox="0 0 42 22" fill="none" xmlns="http://www.w3.org/2000/svg">
<rect width="42" height="22" rx="5" fill="#5797F5"/>
<path d="M16.723 10.904V9.838H18.374C18.543 9.838 18.751 9.838 18.998 9.851C19.128 9.864 19.232 9.864 19.284 9.864C19.518 9.864 19.518 9.864 19.661 9.877C19.622 9.513 19.609 9.201 19.609 8.655V6.809C19.609 6.211 19.622 5.951 19.661 5.548C19.284 5.6 18.855 5.613 18.231 5.613H14.084C13.382 5.613 13.018 5.6 12.641 5.548C12.68 5.925 12.693 6.237 12.693 6.731V8.629C12.693 9.175 12.68 9.5 12.641 9.89C12.992 9.851 13.395 9.838 13.967 9.838H15.345V10.904H13.2C12.615 10.904 12.199 10.878 11.783 10.839V12.282C12.199 12.23 12.693 12.204 13.2 12.204H14.747C14.292 12.815 14.006 13.127 13.499 13.582C12.784 14.232 12.108 14.7 11.263 15.142C11.744 15.675 11.822 15.792 12.147 16.429C12.732 16.078 13.122 15.792 13.707 15.272C14.474 14.583 14.851 14.128 15.371 13.257C15.358 14.037 15.345 14.492 15.345 14.635V15.857C15.345 16.286 15.319 16.65 15.267 17.066H16.801C16.749 16.663 16.723 16.286 16.723 15.87V14.635C16.723 14.297 16.71 13.647 16.684 13.27C17.217 14.102 17.581 14.531 18.244 15.116C18.699 15.519 18.972 15.727 19.895 16.351C20.194 15.753 20.389 15.454 20.766 14.96C19.947 14.57 19.401 14.219 18.686 13.634C18.114 13.153 17.854 12.893 17.295 12.204H19.037C19.44 12.204 19.934 12.23 20.415 12.282V10.826C19.986 10.878 19.479 10.904 18.998 10.904H16.723ZM14.058 6.887H18.218V8.564H14.058V6.887ZM9.82 15.532C9.82 16.143 9.794 16.533 9.742 17.053H11.237C11.185 16.533 11.172 16.104 11.172 15.545V8.408C11.653 7.459 11.9 6.874 12.173 5.99C12.29 5.587 12.29 5.587 12.368 5.405L10.912 4.937C10.847 5.392 10.665 6.055 10.418 6.705C9.885 8.109 9.183 9.201 8.221 10.15C8.533 10.748 8.598 10.93 8.845 11.723C9.313 11.229 9.521 10.943 9.846 10.41C9.82 11.164 9.82 11.411 9.82 11.84V15.532ZM30.815 14.921C31.374 14.921 31.764 14.934 32.193 14.973C32.154 14.674 32.141 14.219 32.141 13.491V10.462C32.141 9.76 32.154 9.409 32.193 8.98C31.829 9.006 31.517 9.019 30.763 9.019H24.172C23.483 9.019 23.21 9.006 22.807 8.98C22.846 9.37 22.872 9.799 22.872 10.449V13.439C22.872 14.167 22.846 14.609 22.807 14.973C23.262 14.934 23.652 14.921 24.211 14.921H24.965C24.237 15.428 23.054 15.805 21.403 16.052C21.819 16.481 22.027 16.793 22.196 17.235C23.184 17.053 23.743 16.897 24.562 16.559C25.303 16.26 25.693 16.039 26.343 15.558L25.537 14.921H29.099L28.501 15.883C30.295 16.286 31.504 16.676 32.882 17.274L33.402 16.091C31.998 15.545 31.296 15.337 29.463 14.921H30.815ZM24.276 10.111H30.737V10.683H24.276V10.111ZM24.276 11.671H30.737V12.217H24.276V11.671ZM24.276 13.205H30.737V13.829H24.276V13.205ZM32.934 6.51C32.934 6.003 32.947 5.769 32.986 5.418C32.622 5.457 32.245 5.47 31.517 5.47H23.444C22.716 5.47 22.352 5.457 21.975 5.418C22.027 5.782 22.04 6.029 22.04 6.51V7.537C22.04 8.005 22.027 8.252 21.975 8.577C22.261 8.551 22.677 8.538 23.327 8.538H31.621C32.336 8.538 32.674 8.551 32.986 8.577C32.947 8.278 32.934 8.018 32.934 7.537V6.51ZM25.186 7.42H23.379V6.588H25.186V7.42ZM28.293 7.42H26.499V6.588H28.293V7.42ZM29.606 7.42V6.588H31.543V7.42H29.606Z" fill="white"/>
</svg>
