<svg width="42" height="22" viewBox="0 0 42 22" fill="none" xmlns="http://www.w3.org/2000/svg">
<rect width="42" height="22" rx="5" fill="#FF9A90"/>
<path d="M15.319 13.257C15.462 13.101 15.462 13.101 15.618 12.932C15.735 12.932 15.865 12.932 15.904 12.932C16.398 12.932 17.048 12.919 17.399 12.893C17.685 12.88 17.854 12.815 17.997 12.698C18.14 12.581 18.218 12.412 18.322 12.074C18.738 12.503 19.141 12.958 19.557 13.517L20.389 12.789C20.09 12.438 19.869 12.191 19.609 11.944H20.48C20.441 11.71 20.428 11.424 20.428 11.06V10.735C20.428 10.384 20.441 10.15 20.467 9.89C20.077 9.929 19.96 9.929 19.206 9.942V7.641C19.206 7.264 19.219 7.056 19.258 6.77C18.881 6.809 18.543 6.822 17.971 6.822H16.385C16.424 6.744 16.489 6.601 16.541 6.497H18.881C19.505 6.497 19.947 6.523 20.324 6.562V5.444C19.999 5.496 19.557 5.522 18.868 5.522H13.473C12.797 5.522 12.381 5.496 12.043 5.444V6.562C12.407 6.523 12.875 6.497 13.473 6.497H15.163C15.124 6.588 15.072 6.705 15.007 6.822H14.006C13.434 6.822 13.07 6.809 12.706 6.77C12.732 7.043 12.745 7.29 12.745 7.667V9.942C12.056 9.929 11.913 9.916 11.549 9.89C11.575 10.15 11.588 10.358 11.588 10.735V11.177C11.575 11.658 11.562 11.957 11.549 12.074H12.485C12.264 12.321 12.095 12.464 11.692 12.763L12.472 13.465C13.135 12.906 13.447 12.529 13.954 11.684L13.07 11.229C12.927 11.476 12.862 11.58 12.771 11.71V10.891H15.618L15.358 11.073C15.787 11.398 15.943 11.528 16.294 11.944L16.983 11.346C16.762 11.138 16.671 11.06 16.45 10.891H19.232V11.58C19.089 11.45 19.024 11.385 18.777 11.164L18.14 11.567C17.815 11.489 17.685 11.437 17.373 11.294C17.256 12.061 17.243 12.061 16.034 12.061C15.163 12.061 15.033 12.022 15.033 11.775V11.671C15.033 11.476 15.046 11.307 15.072 11.138H13.928C13.954 11.294 13.967 11.463 13.967 11.71V12.217C13.967 12.607 14.045 12.737 14.344 12.841C14.058 13.14 13.811 13.348 13.408 13.621C12.771 14.05 12.355 14.232 11.367 14.518C11.679 14.804 11.861 15.051 12.043 15.402C12.849 15.142 13.226 14.973 13.746 14.648C13.824 14.596 13.824 14.596 13.876 14.557C14.123 14.804 14.474 15.077 14.799 15.298C13.811 15.636 12.576 15.831 11.315 15.844C11.562 16.234 11.718 16.611 11.796 16.988C13.616 16.806 14.682 16.559 16.034 16.013C16.411 16.182 16.736 16.299 16.983 16.377C17.906 16.676 18.439 16.78 20.194 16.988C20.298 16.52 20.441 16.156 20.688 15.701C19.037 15.649 18.179 15.558 17.321 15.324C17.815 14.986 18.114 14.739 18.647 14.18C18.829 13.998 18.829 13.985 18.907 13.933L18.166 13.205C17.984 13.244 17.698 13.257 17.217 13.257H15.319ZM17.022 14.206C16.424 14.596 16.216 14.739 15.995 14.843C15.618 14.674 15.228 14.427 14.942 14.206H17.022ZM17.945 9.942H14.006V9.63H17.945V9.942ZM17.945 8.967H14.006V8.629H17.945V8.967ZM17.945 7.966H14.006V7.641H17.945V7.966ZM9.638 15.545C9.638 16.182 9.625 16.546 9.56 17.079H11.003C10.964 16.559 10.938 16.13 10.938 15.571V8.148C11.289 7.407 11.497 6.861 11.705 6.12C11.848 5.652 11.848 5.652 11.926 5.431L10.561 4.937C10.431 5.834 10.223 6.523 9.82 7.498C9.365 8.577 8.858 9.435 8.182 10.215C8.455 10.644 8.637 11.06 8.832 11.697C9.3 11.073 9.443 10.852 9.677 10.371C9.638 10.852 9.638 11.086 9.638 11.684V15.545ZM30.815 14.921C31.374 14.921 31.764 14.934 32.193 14.973C32.154 14.674 32.141 14.219 32.141 13.491V10.462C32.141 9.76 32.154 9.409 32.193 8.98C31.829 9.006 31.517 9.019 30.763 9.019H24.172C23.483 9.019 23.21 9.006 22.807 8.98C22.846 9.37 22.872 9.799 22.872 10.449V13.439C22.872 14.167 22.846 14.609 22.807 14.973C23.262 14.934 23.652 14.921 24.211 14.921H24.965C24.237 15.428 23.054 15.805 21.403 16.052C21.819 16.481 22.027 16.793 22.196 17.235C23.184 17.053 23.743 16.897 24.562 16.559C25.303 16.26 25.693 16.039 26.343 15.558L25.537 14.921H29.099L28.501 15.883C30.295 16.286 31.504 16.676 32.882 17.274L33.402 16.091C31.998 15.545 31.296 15.337 29.463 14.921H30.815ZM24.276 10.111H30.737V10.683H24.276V10.111ZM24.276 11.671H30.737V12.217H24.276V11.671ZM24.276 13.205H30.737V13.829H24.276V13.205ZM32.934 6.51C32.934 6.003 32.947 5.769 32.986 5.418C32.622 5.457 32.245 5.47 31.517 5.47H23.444C22.716 5.47 22.352 5.457 21.975 5.418C22.027 5.782 22.04 6.029 22.04 6.51V7.537C22.04 8.005 22.027 8.252 21.975 8.577C22.261 8.551 22.677 8.538 23.327 8.538H31.621C32.336 8.538 32.674 8.551 32.986 8.577C32.947 8.278 32.934 8.018 32.934 7.537V6.51ZM25.186 7.42H23.379V6.588H25.186V7.42ZM28.293 7.42H26.499V6.588H28.293V7.42ZM29.606 7.42V6.588H31.543V7.42H29.606Z" fill="white"/>
</svg>
