<svg width="42" height="22" viewBox="0 0 42 22" fill="none" xmlns="http://www.w3.org/2000/svg">
<rect width="42" height="22" rx="5" fill="#FFA435"/>
<path d="M11.523 9.669H11.64C12.056 9.669 12.303 9.682 12.563 9.721V8.369C12.342 8.408 12.134 8.421 11.666 8.421H11.523V6.64C11.822 6.549 12.108 6.445 12.42 6.315C12.55 6.263 12.654 6.224 12.68 6.211C12.823 6.159 12.823 6.159 12.888 6.133L12.121 4.963C11.51 5.405 10.21 5.782 8.481 6.029C8.702 6.458 8.78 6.64 9.001 7.251C9.56 7.147 9.625 7.134 10.21 7.004V8.421H9.56C9.157 8.421 8.91 8.408 8.572 8.356V9.734C8.884 9.682 9.17 9.669 9.534 9.669H10.08C9.664 11.047 9.014 12.321 8.299 13.14C8.585 13.556 8.78 13.959 8.962 14.518C9.534 13.686 9.924 12.893 10.301 11.762C10.236 12.529 10.21 13.01 10.21 13.491V15.519C10.21 16.195 10.184 16.611 10.132 17.04H11.601C11.536 16.637 11.523 16.299 11.523 15.506V11.424C11.809 11.801 11.965 12.061 12.329 12.698L12.979 11.58C12.576 11.034 12.173 10.605 11.523 10.046V9.669ZM13.278 8.551C13.603 8.525 13.941 8.512 14.266 8.512H15.748V8.928H13.941C13.369 8.928 13.148 8.915 12.836 8.863V9.89C13.2 9.851 13.382 9.838 13.928 9.838H19.154C19.687 9.838 19.934 9.851 20.259 9.89V8.863C19.908 8.915 19.622 8.928 19.154 8.928H16.97V8.512H18.621C19.05 8.512 19.401 8.525 19.726 8.564V7.602C19.44 7.628 19.323 7.628 19.024 7.641C19.297 7.108 19.375 6.965 19.557 6.614L18.309 6.237C17.958 7.134 17.828 7.446 17.724 7.641H17.178C17.061 7.212 16.905 6.835 16.658 6.367C18.439 6.185 18.439 6.185 19.869 5.951L19.011 4.989C17.672 5.301 15.449 5.483 12.992 5.496C13.187 5.886 13.252 6.081 13.369 6.575C13.668 6.575 13.824 6.562 14.019 6.549C14.149 6.549 14.149 6.549 14.279 6.536L13.33 6.965C13.512 7.199 13.668 7.42 13.798 7.628C13.616 7.628 13.551 7.628 13.278 7.602V8.551ZM15.124 7.641C14.968 7.277 14.838 7.03 14.513 6.536C15.345 6.497 15.436 6.484 16.398 6.393L15.462 6.731C15.657 7.056 15.774 7.29 15.904 7.641H15.124ZM18.907 13.725C19.349 13.725 19.492 13.725 19.791 13.764C19.765 13.543 19.752 13.374 19.752 12.893V11.047C19.752 10.527 19.752 10.384 19.791 10.189C19.583 10.228 19.453 10.228 18.907 10.228H14.097C13.616 10.228 13.382 10.215 13.096 10.189V11.151C13.343 11.125 13.746 11.112 14.11 11.112H18.504V11.541H14.331C13.785 11.541 13.577 11.528 13.356 11.502V12.451C13.616 12.425 13.811 12.412 14.37 12.412H18.504V12.841H14.019C13.564 12.841 13.291 12.828 13.057 12.789V13.764C13.278 13.738 13.59 13.725 14.019 13.725H16.45L15.631 14.232C16.151 14.726 16.281 14.882 16.645 15.402L17.542 14.791C17.1 14.258 16.918 14.076 16.515 13.725H18.907ZM12.862 16.793C13.369 16 13.655 15.376 13.928 14.401L12.797 13.907C12.576 14.804 12.29 15.376 11.757 16.091L12.862 16.793ZM15.345 14.752C15.345 14.362 15.358 14.232 15.41 14.037H14.058C14.097 14.271 14.11 14.531 14.11 14.934V15.909C14.11 16.754 14.422 16.897 16.333 16.897C18.387 16.897 18.634 16.728 18.829 15.246C18.361 15.181 17.971 15.012 17.607 14.726C17.594 15.22 17.529 15.506 17.412 15.61C17.282 15.701 16.931 15.753 16.281 15.753C15.475 15.753 15.345 15.714 15.345 15.454V14.752ZM20.662 15.974C20.233 15.09 19.96 14.635 19.349 13.816L18.361 14.349C18.933 15.181 19.232 15.74 19.557 16.676L20.662 15.974ZM31.465 8.759C31.374 9.63 31.296 10.111 31.153 10.605C31.062 10.956 30.932 11.06 30.62 11.06C30.386 11.06 30.126 11.034 29.827 10.982C29.775 10.982 29.71 10.969 29.619 10.956C29.775 11.437 29.827 11.684 29.892 12.23C30.282 12.256 30.49 12.269 30.802 12.269C31.777 12.269 32.089 12.126 32.336 11.554C32.531 11.099 32.752 10.046 32.908 8.655C32.999 7.914 33.025 7.693 33.051 7.498C32.739 7.537 32.427 7.55 31.959 7.55H30.503C30.62 7.212 30.854 6.341 30.997 5.743C31.036 5.587 31.036 5.561 31.062 5.483C30.672 5.522 30.23 5.535 29.658 5.535H23.665C23.015 5.535 22.521 5.509 22.157 5.457V6.835C22.521 6.783 23.067 6.757 23.665 6.757H24.458C24.315 7.927 24.146 8.603 23.808 9.266C23.327 10.228 22.599 10.995 21.455 11.723C21.858 12.074 22.144 12.373 22.417 12.776C23.951 11.645 24.757 10.592 25.355 8.954H27.786C27.578 9.357 27.435 9.578 27.188 9.838C26.603 9.552 26.187 9.357 25.94 9.253L25.147 9.994C25.732 10.254 25.914 10.345 26.33 10.579C25.641 11.047 24.978 11.32 23.86 11.593C24.25 12.035 24.354 12.165 24.588 12.607C25.719 12.295 26.668 11.827 27.383 11.216C27.994 11.606 28.384 11.892 28.813 12.308L29.58 11.294C29.151 10.969 28.696 10.67 28.228 10.397C28.54 10.046 28.995 9.357 29.307 8.759H31.465ZM28.787 7.771C28.553 7.797 28.358 7.81 27.994 7.81H25.68C25.784 7.329 25.784 7.303 25.849 6.757H29.385C29.216 7.433 29.151 7.68 29.021 8.018L28.787 7.771ZM22.859 15.493H22.521C22.157 15.493 21.845 15.48 21.559 15.428V16.754C21.91 16.715 22.521 16.689 23.015 16.689H31.959C32.427 16.689 32.986 16.715 33.428 16.754V15.428C33.155 15.48 32.869 15.493 32.453 15.493H32.102V13.621C32.102 13.205 32.115 12.945 32.154 12.646C31.699 12.672 31.283 12.685 30.906 12.685H24.094C23.6 12.685 23.223 12.672 22.807 12.646C22.846 12.971 22.859 13.283 22.859 13.686V15.493ZM24.198 13.881H25.576V15.493H24.198V13.881ZM26.759 13.881H28.111V15.493H26.759V13.881ZM29.294 13.881H30.75V15.493H29.294V13.881Z" fill="white"/>
</svg>
