<svg width="64" height="26" viewBox="0 0 64 26" fill="none" xmlns="http://www.w3.org/2000/svg">
<path d="M52.0187 26H11.9813C5.29173 26 0 20.1743 0 13.0539C0 5.82573 5.39158 0 11.9813 0H52.0187C58.7083 0 64 5.82573 64 12.9461C64 20.1743 58.6084 26 52.0187 26Z" fill="url(#paint0_linear)"/>
<g clip-path="url(#clip0)">
<g clip-path="url(#clip1)">
<path d="M18.9912 11.8198C19.4012 11.8198 19.8412 11.8198 20.3212 11.8998C20.8012 11.9798 21.2512 11.9998 21.6512 12.0698V12.5298L21.2112 12.6898V13.2498H22.4112C22.4907 13.2445 22.567 13.2168 22.6312 13.1698L22.8712 12.9898C22.9528 12.9182 23.0297 12.8414 23.1012 12.7598L23.2912 12.5398L23.7513 12.7998C23.9128 12.8883 24.0697 12.9851 24.2213 13.0898L24.6612 13.3898C24.7872 13.4716 24.9074 13.5618 25.0212 13.6598L24.8913 14.6598H22.1012C22.284 14.9163 22.4917 15.1542 22.7213 15.3698C22.9512 15.5794 23.1951 15.7732 23.4512 15.9498C23.7141 16.1241 23.988 16.2811 24.2712 16.4198C24.5612 16.5698 24.8612 16.7198 25.1712 16.8598L25.1012 17.3198C24.9053 17.4712 24.7391 17.6577 24.6113 17.8698C24.4913 18.0798 24.3412 18.3398 24.1912 18.6498C24.0412 18.9598 23.8412 19.1398 23.6312 19.1398C23.5092 19.1398 23.3902 19.1014 23.2912 19.0298C23.1671 18.9209 23.0501 18.804 22.9412 18.6798C22.5431 18.2335 22.2067 17.7357 21.9412 17.1998C21.648 16.604 21.4135 15.9811 21.2412 15.3398V19.8398C20.957 19.9171 20.6654 19.964 20.3712 19.9798C20.0512 19.9798 19.6012 19.9798 19.0212 19.9798V16.5598C18.8384 16.8284 18.6272 17.0765 18.3913 17.2998C18.1256 17.563 17.8416 17.807 17.5412 18.0298C17.2312 18.2598 16.8912 18.4798 16.5412 18.6898C16.1857 18.9009 15.8146 19.0848 15.4312 19.2398L14.9012 18.7298V19.8298C14.6124 19.8976 14.3177 19.9378 14.0212 19.9498C13.6679 19.9498 13.2279 19.9498 12.7012 19.9498V13.1098L12.1413 13.7798C11.9513 14.0098 11.7412 14.2298 11.5312 14.4598L11.0312 13.8598C11.6038 12.5659 12.072 11.2283 12.4312 9.8598C12.7846 8.52647 13.0546 7.25647 13.2412 6.0498C13.7082 6.10282 14.1721 6.1796 14.6312 6.27982C15.1312 6.38982 15.6312 6.51979 16.1812 6.65979L16.1113 7.11981L15.4713 7.20981C15.3458 7.76822 15.1889 8.31909 15.0013 8.8598C14.8021 9.43345 14.5684 9.99448 14.3012 10.5398L14.9512 10.5998L15.4912 10.6698V11.1098L14.9012 11.2898V18.6498C15.5454 18.0813 16.1255 17.4442 16.6312 16.7498C17.0961 16.0955 17.5107 15.4069 17.8712 14.6898H15.5312L15.4512 13.2598H19.0212L18.9912 11.8198ZM16.2612 6.1698C16.6791 6.23345 17.093 6.32026 17.5013 6.42981C17.9213 6.53981 18.3312 6.65979 18.7412 6.78979H21.2612C21.3558 6.79051 21.4489 6.76636 21.5312 6.71979C21.624 6.66905 21.7111 6.60873 21.7912 6.53979L22.0112 6.3298C22.0873 6.24856 22.171 6.17488 22.2612 6.1098L22.7513 6.2998L23.3313 6.55981L23.9012 6.83981C24.0912 6.92981 24.2513 7.01979 24.3913 7.09979C24.3313 7.23979 24.2612 7.4498 24.1712 7.7298C24.0859 7.98448 24.042 8.25121 24.0412 8.51981V11.8798C23.9068 11.9193 23.7698 11.9494 23.6312 11.9698H23.1812H22.5912H21.8212V11.5298H18.5212V12.0898C18.2338 12.1665 17.9386 12.2101 17.6413 12.2198C17.2879 12.2198 16.8479 12.2198 16.3212 12.2198L16.2612 6.1698ZM18.4612 10.3098H21.7612V8.1098H18.4612V10.3098Z" fill="white"/>
<path d="M26.9212 6.35025L27.9212 6.54025L28.9812 6.79025H36.1012C36.269 6.79157 36.4306 6.72693 36.5512 6.61026C36.6912 6.50026 36.8112 6.38027 36.9212 6.28027L37.3812 6.43027L37.9512 6.64026L38.5512 6.86026C38.7248 6.92138 38.895 6.99146 39.0612 7.07025C38.9588 7.23872 38.8717 7.41611 38.8012 7.60025C38.7212 7.79013 38.6804 7.99422 38.6812 8.20026V10.4402C38.4275 10.4951 38.1702 10.5319 37.9112 10.5503C37.6312 10.5503 37.2612 10.5503 36.8012 10.5503L37.5612 10.8903L38.2412 11.2503C38.133 11.4367 38.0458 11.6346 37.9812 11.8403C37.9021 12.0583 37.8615 12.2884 37.8613 12.5203V17.1403C37.5502 17.2178 37.2317 17.2614 36.9112 17.2703C36.5312 17.2703 36.0612 17.2703 35.5312 17.2703V17.1803H34.2612L35.6712 17.3303L36.9212 17.4803C37.3212 17.5303 37.7012 17.5902 38.0712 17.6602L39.1612 17.8503C39.061 18.2658 38.9134 18.6684 38.7213 19.0503C38.5384 19.3912 38.3169 19.7099 38.0612 20.0003C37.3012 19.5603 36.5212 19.1403 35.7312 18.7603C34.9412 18.3803 34.2013 18.0303 33.5013 17.7603L33.9212 17.2003H31.2612L32.0212 17.6902L32.7012 18.1503L32.3613 18.5503L31.8512 18.4303C31.1002 18.8215 30.3132 19.1396 29.5013 19.3802C28.4943 19.6729 27.4637 19.877 26.4212 19.9903L26.0312 19.3103C26.6979 18.9969 27.3279 18.6869 27.9212 18.3802C28.4991 18.0778 29.0599 17.744 29.6012 17.3802C29.3231 17.4218 29.0425 17.4452 28.7612 17.4503H27.7612V10.7103H26.9312L26.9212 6.35025ZM29.0912 10.5503H28.8613H28.6312C29.1212 10.6303 29.6312 10.7103 30.0412 10.8003H35.3212C35.4764 10.7948 35.6263 10.7425 35.7513 10.6503C35.8864 10.5541 36.0135 10.4471 36.1312 10.3303H29.1312L29.0912 10.5503ZM29.0912 9.12027H30.2612V8.12027H29.0912V9.12027ZM30.0912 12.1203V12.6302H35.5412V12.1103L30.0912 12.1203ZM30.0912 14.3303H35.5412V13.7703H30.0912V14.3303ZM30.0912 16.0803H35.5412V15.4803H30.0912V16.0803ZM32.2612 9.11026H33.4612V8.11026H32.2612V9.11026ZM35.4012 8.11026V9.11026H36.5013V8.11026H35.4012ZM36.5013 10.4603V10.4102H36.4012L36.5013 10.4603Z" fill="white"/>
</g>
</g>
<path d="M53.9969 12.4002H44.5969C44.1969 12.4002 43.7969 12.0002 43.7969 11.6002C43.7969 11.2002 44.1969 10.8002 44.5969 10.8002H51.9969L50.0969 8.9002C49.7969 8.6002 49.7969 8.1002 50.0969 7.8002C50.3969 7.5002 50.8969 7.5002 51.1969 7.8002L54.4969 11.1002C54.6969 11.3002 54.7969 11.7002 54.6969 12.0002C54.5969 12.2002 54.2969 12.4002 53.9969 12.4002Z" fill="white"/>
<path d="M47.797 18.5006C47.597 18.5006 47.397 18.4006 47.197 18.3006L43.997 15.0006C43.797 14.8006 43.697 14.4006 43.797 14.1006C43.897 13.8006 44.197 13.6006 44.497 13.6006H53.997C54.397 13.6006 54.797 14.0006 54.797 14.4006C54.797 14.8006 54.397 15.2006 53.997 15.2006H46.497L48.397 17.1006C48.697 17.4006 48.697 17.9006 48.397 18.2006C48.197 18.4006 47.997 18.5006 47.797 18.5006Z" fill="white"/>
<defs>
<linearGradient id="paint0_linear" x1="64" y1="26" x2="-3.31551e-07" y2="8.16125e-07" gradientUnits="userSpaceOnUse">
<stop stop-color="#60BAF8"/>
<stop offset="1" stop-color="#3C9EE1"/>
</linearGradient>
<clipPath id="clip0">
<rect width="27.8" height="13.1" fill="white" transform="translate(11 6.5)"/>
</clipPath>
<clipPath id="clip1">
<rect width="28.15" height="14.07" fill="white" transform="translate(11 6)"/>
</clipPath>
</defs>
</svg>
