<svg width="64" height="26" viewBox="0 0 64 26" fill="none" xmlns="http://www.w3.org/2000/svg">
<path d="M51.5195 26H12.4805C5.59126 26 0 20.4 0 13.5V12.5C0 5.6 5.59126 0 12.4805 0H51.5195C58.4087 0 64 5.6 64 12.5V13.5C64 20.4 58.4087 26 51.5195 26Z" fill="url(#paint0_radial)"/>
<g clip-path="url(#clip0)">
<path d="M19.0013 11.8199C19.4013 11.8199 19.8412 11.82 20.3212 11.9C20.8012 11.98 21.2512 12.0099 21.6512 12.0699V12.55L21.2112 12.71V13.27H22.4112C22.4907 13.2647 22.567 13.2369 22.6312 13.19C22.7198 13.1376 22.8035 13.0773 22.8812 13.0099C22.9596 12.9383 23.0331 12.8614 23.1012 12.78C23.1702 12.7117 23.2337 12.6381 23.2912 12.56L23.7612 12.8199L24.2312 13.11C24.3812 13.22 24.5212 13.3199 24.6712 13.4099C24.7924 13.494 24.9092 13.5842 25.0212 13.68L24.8913 14.68H22.1113C22.2902 14.9365 22.4946 15.1744 22.7213 15.39C22.9488 15.5993 23.1929 15.79 23.4512 15.96C23.7141 16.1342 23.988 16.2912 24.2712 16.43L25.1712 16.8799L25.1012 17.33C24.9072 17.4834 24.7414 17.6695 24.6113 17.8799C24.4913 18.0899 24.3412 18.35 24.1912 18.67C24.0412 18.99 23.8512 19.15 23.6312 19.15C23.5092 19.15 23.3902 19.1115 23.2912 19.0399C23.1646 18.9337 23.0475 18.8166 22.9412 18.69C22.5431 18.2437 22.2067 17.7459 21.9412 17.21C21.648 16.6142 21.4135 15.9912 21.2412 15.3499V19.8499C20.957 19.9272 20.6654 19.9742 20.3712 19.99C20.0512 19.99 19.6012 19.99 19.0312 19.99V16.5699C18.8443 16.8383 18.6298 17.0863 18.3913 17.31C18.1256 17.5732 17.8416 17.8171 17.5412 18.0399C17.2205 18.2816 16.8867 18.5053 16.5412 18.71C16.1836 18.9171 15.8128 19.1009 15.4312 19.2599L14.9012 18.74V19.84C14.6124 19.9078 14.3177 19.9479 14.0212 19.96C13.6679 19.96 13.2279 19.96 12.7012 19.96V13.02C12.5212 13.25 12.3313 13.47 12.1413 13.69C11.9513 13.91 11.7412 14.15 11.5312 14.37L11.0312 13.77C11.6038 12.4761 12.072 11.1385 12.4312 9.76996C12.7812 8.42996 13.0513 7.14996 13.2513 5.95996C13.6713 6.00996 14.1312 6.08997 14.6312 6.18997C15.1312 6.28997 15.6312 6.42996 16.1812 6.57996L16.1113 7.02997L15.4812 7.11996C15.3512 7.66996 15.1913 8.21997 15.0013 8.77997C14.8047 9.35134 14.5708 9.90919 14.3012 10.45L14.9512 10.52L15.4912 10.58V11.06L14.9012 11.24V18.61C15.5432 18.0356 16.123 17.3954 16.6312 16.7C17.0939 16.0477 17.5083 15.3625 17.8712 14.65H15.5312L15.4512 13.21H19.0312L19.0013 11.8199ZM16.2812 6.17996C16.6999 6.23437 17.1142 6.3179 17.5212 6.42996L18.7612 6.78995H21.3012C21.3958 6.79066 21.4889 6.76655 21.5712 6.71997C21.664 6.66924 21.7511 6.60888 21.8313 6.53995C21.9094 6.47515 21.9829 6.40499 22.0512 6.32996L22.2213 6.14996L22.7112 6.33997L23.2912 6.58997L23.8712 6.86996L24.3512 7.12994C24.2912 7.27994 24.2212 7.48995 24.1312 7.75995C24.0459 8.01463 24.002 8.28136 24.0013 8.54996V11.9099C23.8669 11.9495 23.7298 11.9796 23.5912 12H23.1413H22.5512H21.7612V11.56H18.4612V12.12C18.1738 12.1966 17.8786 12.2403 17.5813 12.25C17.2279 12.25 16.7879 12.25 16.2612 12.25L16.2812 6.17996ZM18.4812 10.31H21.7612V8.10995H18.4612L18.4812 10.31Z" fill="white"/>
<path d="M31.5513 8.62955V8.25955H26.5512L26.4812 7.11957H31.4812V6.05957H32.1612L32.9313 6.11957L33.7113 6.19955L34.3712 6.28955V6.72955L33.8112 6.88956V7.09955H36.7612C36.8326 7.09286 36.9013 7.06885 36.9613 7.02957C37.0408 6.98538 37.1147 6.93164 37.1813 6.86957L37.3913 6.65955L37.5612 6.47955L37.9812 6.69955L38.4212 6.93958L38.8313 7.18958L39.1712 7.41956L39.0412 8.23956H37.1212C37.3212 8.34956 37.5212 8.45956 37.7012 8.57956L38.2012 8.92957L38.0813 9.70956H37.4212C37.8915 9.88088 38.3493 10.0847 38.7912 10.3195C38.7188 10.4573 38.6586 10.6012 38.6113 10.7496C38.5526 10.9312 38.5157 11.1192 38.5012 11.3096V12.7296C38.2812 12.7296 38.0713 12.7896 37.8613 12.8096H37.1012C37.2712 12.8696 37.4213 12.9396 37.5513 12.9996L37.9112 13.1696C37.8072 13.3534 37.733 13.5525 37.6912 13.7596C37.6432 13.9796 37.6198 14.2043 37.6212 14.4296V17.7196C37.1635 17.8368 36.6937 17.9006 36.2212 17.9095L37.7713 18.1096C38.2713 18.1796 38.7712 18.2695 39.2612 18.3795C39.1322 18.6914 38.9784 18.9924 38.8013 19.2796C38.6279 19.5552 38.4157 19.8044 38.1712 20.0196C37.4412 19.6796 36.6912 19.3596 35.9212 19.0196C35.1512 18.6796 34.4213 18.4696 33.7113 18.2596L33.9913 17.8396H31.3212C31.5312 17.9396 31.7312 18.0596 31.9412 18.1696L32.6113 18.5596L32.2912 18.9796L31.7612 18.8296C31.0481 19.1385 30.3038 19.3698 29.5412 19.5196C28.5866 19.7309 27.6171 19.868 26.6413 19.9296L26.2812 19.3195C26.9112 19.1095 27.5213 18.8896 28.1113 18.6696C28.6864 18.4428 29.2416 18.1685 29.7713 17.8495C29.4968 17.896 29.2195 17.9227 28.9412 17.9296H27.9412V12.8396H27.2112V9.63956L29.2112 9.91956H36.2113C36.3271 9.91816 36.4407 9.88719 36.5412 9.82956C36.6423 9.77449 36.7364 9.70732 36.8212 9.62955H27.6212L27.5412 8.52957L31.5513 8.62955ZM29.2312 11.6295H30.3613V11.0796H29.2312V11.6295ZM35.2312 12.9095C35.3498 12.9083 35.4668 12.8828 35.5751 12.8346C35.6835 12.7865 35.7809 12.7167 35.8613 12.6295H29.2812V12.8096L29.9913 12.9095H35.2312ZM30.1413 13.8495V14.2196H35.5012V13.8495H30.1413ZM30.1413 15.5096H35.5012V15.1295H30.1413V15.5096ZM30.1413 16.8396H35.5012V16.4196H30.1413V16.8396ZM32.2612 11.6295H33.4812V11.0796H32.2612V11.6295ZM36.1212 8.62955C36.2257 8.62332 36.3247 8.58089 36.4013 8.50955L36.6813 8.25955H33.9313V8.62955H36.1212ZM35.3313 11.0496V11.5995H36.4712V11.0496H35.3313Z" fill="white"/>
</g>
<path d="M53.9969 12.4002H44.5969C44.1969 12.4002 43.7969 12.0002 43.7969 11.6002C43.7969 11.2002 44.1969 10.8002 44.5969 10.8002H51.9969L50.0969 8.9002C49.7969 8.6002 49.7969 8.1002 50.0969 7.8002C50.3969 7.5002 50.8969 7.5002 51.1969 7.8002L54.4969 11.1002C54.6969 11.3002 54.7969 11.7002 54.6969 12.0002C54.5969 12.2002 54.2969 12.4002 53.9969 12.4002Z" fill="white"/>
<path d="M47.797 18.5006C47.597 18.5006 47.397 18.4006 47.197 18.3006L43.997 15.0006C43.797 14.8006 43.697 14.4006 43.797 14.1006C43.897 13.8006 44.197 13.6006 44.497 13.6006H53.997C54.397 13.6006 54.797 14.0006 54.797 14.4006C54.797 14.8006 54.397 15.2006 53.997 15.2006H46.497L48.397 17.1006C48.697 17.4006 48.697 17.9006 48.397 18.2006C48.197 18.4006 47.997 18.5006 47.797 18.5006Z" fill="white"/>
<defs>
<radialGradient id="paint0_radial" cx="0" cy="0" r="1" gradientUnits="userSpaceOnUse" gradientTransform="translate(3.99376 4) rotate(17.508) scale(66.4807 55.4402)">
<stop stop-color="#02AAB0"/>
<stop offset="0.966695" stop-color="#00CDAC"/>
</radialGradient>
<clipPath id="clip0">
<rect width="28.27" height="14.08" fill="white" transform="translate(11 6)"/>
</clipPath>
</defs>
</svg>
