<svg width="64" height="26" viewBox="0 0 64 26" fill="none" xmlns="http://www.w3.org/2000/svg">
<path d="M52.0187 26H11.9813C5.29173 26 0 20.1743 0 13.0539C0 5.82573 5.39158 0 11.9813 0H52.0187C58.7083 0 64 5.82573 64 12.9461C64 20.1743 58.6084 26 52.0187 26Z" fill="url(#paint0_radial)"/>
<g clip-path="url(#clip0)">
<g clip-path="url(#clip1)">
<path d="M15.3003 6.28952C15.5603 6.50952 15.7703 6.70954 15.9503 6.86954L16.4603 7.35953C17.0703 7.27953 17.6303 7.18952 18.1603 7.09952C18.6903 7.00952 19.1603 6.88954 19.6303 6.77954C20.1003 6.66954 20.5303 6.54955 20.9403 6.40955L22.1603 6.01953C22.3303 6.12953 22.4903 6.24953 22.6403 6.35953L23.0803 6.69952L23.5303 7.04953L24.0203 7.44952L23.6803 7.80954L23.2103 7.66953L22.8203 7.72952L22.4203 7.78952L23.0903 7.99954L23.7103 8.22952L23.5803 8.59952H23.1503C23.0063 8.76531 22.8492 8.91917 22.6803 9.05954C22.5117 9.19875 22.331 9.32258 22.1403 9.42953H22.4103C22.5367 9.41282 22.6533 9.35272 22.7403 9.25952C22.8546 9.15669 22.9584 9.04281 23.0503 8.91953C23.2503 9.04953 23.4403 9.18952 23.6403 9.34952C23.8403 9.50952 24.0003 9.63953 24.1403 9.76953L24.0203 10.3995H23.6403L24.2303 10.7995L24.7103 11.1595L24.6103 11.7995H22.7103C22.9403 11.8695 23.1903 11.9695 23.4803 12.0895C23.7703 12.2095 24.0003 12.3195 24.2003 12.4295C24.1059 12.557 24.041 12.7039 24.0103 12.8595C23.96 13.0318 23.9331 13.2101 23.9303 13.3895V16.0195C23.6746 16.0857 23.4136 16.1292 23.1503 16.1495C22.8403 16.1495 22.4503 16.1995 21.9803 16.1995V15.8995H20.2903C20.5777 16.0224 20.8523 16.1731 21.1103 16.3495C21.3209 16.4953 21.5183 16.6593 21.7003 16.8395C21.5447 17.0841 21.3525 17.3033 21.1303 17.4895C20.8555 17.7165 20.5445 17.8957 20.2103 18.0195L19.9703 17.3495C19.9003 17.1595 19.8303 16.9695 19.7503 16.7995L19.3603 16.9295V17.7995C19.356 17.8308 19.3585 17.8627 19.3676 17.8929C19.3767 17.9232 19.3922 17.9512 19.4131 17.9749C19.434 17.9986 19.4597 18.0175 19.4886 18.0304C19.5174 18.0433 19.5487 18.0498 19.5803 18.0495H19.9903H20.9903C21.1135 18.0583 21.2371 18.0583 21.3603 18.0495L21.5803 17.9795C21.6143 17.97 21.6447 17.9507 21.6678 17.9241C21.691 17.8974 21.7057 17.8645 21.7103 17.8295L22.0503 16.5995L22.6103 16.6695V17.5495C22.6054 17.6325 22.6227 17.7154 22.6603 17.7895C22.7071 17.87 22.7819 17.9305 22.8703 17.9595C22.9781 18.0108 23.0634 18.0997 23.1103 18.2095C23.1684 18.3381 23.1958 18.4785 23.1903 18.6195C23.1818 18.8666 23.082 19.1017 22.9103 19.2795C22.7049 19.5021 22.4224 19.638 22.1203 19.6595C21.8584 19.6964 21.5947 19.7197 21.3303 19.7295C21.0303 19.7295 20.7103 19.7295 20.3803 19.7295C20.0503 19.7295 19.7303 19.7295 19.3803 19.7295C19.0303 19.7295 18.7503 19.7295 18.4603 19.6695C18.3075 19.6674 18.1575 19.628 18.0233 19.5548C17.8891 19.4817 17.7748 19.3769 17.6903 19.2495C17.5372 18.9821 17.461 18.6776 17.4703 18.3695V16.1795C17.7803 16.1795 18.1203 16.1795 18.4703 16.2495C18.8203 16.3195 19.1803 16.3195 19.4703 16.3695L19.2903 16.0095L19.4703 15.8995H16.4003L16.3503 14.8995H21.8903V14.5495H17.1603L17.1003 13.5495H22.0303V13.1795H16.5903L16.5303 12.1795H21.7103C21.8309 12.179 21.9476 12.1366 22.0403 12.0595L22.3103 11.8295H16.1603V11.5795H15.1003V12.3395L15.4303 12.1495C15.7268 12.3767 16.0044 12.6275 16.2603 12.8995C16.5311 13.1851 16.7817 13.4892 17.0103 13.8095C16.8764 14.0999 16.7013 14.3693 16.4903 14.6095C16.2501 14.8834 15.982 15.1314 15.6903 15.3495C15.6003 14.9095 15.5103 14.5195 15.4303 14.1895C15.3503 13.8595 15.2303 13.5295 15.1003 13.1895V18.1895C15.435 17.9139 15.7311 17.5943 15.9803 17.2395C16.2224 16.8813 16.4205 16.4951 16.5703 16.0895L17.2403 16.2395C17.3002 16.8146 17.3002 17.3944 17.2403 17.9695C17.1906 18.5033 17.0306 19.0209 16.7703 19.4895C16.4636 19.3685 16.1744 19.207 15.9103 19.0095C15.6133 18.7936 15.3475 18.5379 15.1203 18.2495V19.7395C14.8605 19.8023 14.5965 19.8457 14.3303 19.8695C14.0436 19.8695 13.6336 19.8695 13.1003 19.8695V15.4395C12.8903 15.7795 12.6703 16.0995 12.4303 16.4395C12.1944 16.7565 11.9336 17.0541 11.6503 17.3295L11.0703 16.9795C11.8534 15.2601 12.4307 13.4543 12.7903 11.5995H11.3403L11.2503 10.2195H13.1003V8.71954L12.3603 8.78952H11.5403L11.2803 8.06952C11.7703 7.89952 12.2103 7.74952 12.6003 7.59952C12.9903 7.44952 13.3503 7.30953 13.6703 7.16953L14.5603 6.73953C14.8149 6.603 15.0619 6.45277 15.3003 6.28952ZM17.3603 9.43954C17.2995 9.23192 17.226 9.02819 17.1403 8.82953C17.0703 8.65953 16.9703 8.45953 16.8603 8.20953H16.8003L16.5903 8.43954L16.0403 8.12952L15.0403 8.36954V10.1395C15.1458 10.079 15.2405 10.0013 15.3203 9.90955L15.6003 9.57953L16.0203 9.91953L16.4203 10.2595V9.44952L17.3603 9.43954ZM16.6703 10.8395H19.1603V10.4095H16.6403L16.7403 10.4995L16.6703 10.8395ZM19.0003 9.01953C18.8572 9.18158 18.6923 9.32295 18.5103 9.43954H19.5103C19.4303 9.16954 19.3603 8.92954 19.2803 8.71954C19.2124 8.51164 19.1323 8.30794 19.0403 8.10953L17.8003 8.16953C18.0191 8.27733 18.2296 8.40099 18.4303 8.53952C18.63 8.68766 18.8203 8.84797 19.0003 9.01953ZM21.1403 8.80954C21.0313 8.93359 20.9144 9.05051 20.7903 9.15955C20.6695 9.26961 20.5351 9.36371 20.3903 9.43954H21.1603C21.27 9.19254 21.3635 8.93866 21.4403 8.67953L21.6503 7.86954L20.8703 7.95953C20.6103 7.95953 20.3403 8.01954 20.0603 8.02954C20.4568 8.24461 20.8262 8.50648 21.1603 8.80954H21.1403ZM22.8303 10.8095C22.9376 10.7988 23.0373 10.7489 23.1103 10.6695C23.2191 10.5858 23.3166 10.4883 23.4003 10.3795H21.2103V10.8095H22.8303ZM23.3003 16.0995C23.6703 16.3895 24.0103 16.6695 24.3003 16.9495C24.6167 17.2451 24.8925 17.5814 25.1203 17.9495C24.9552 18.2356 24.7608 18.5037 24.5403 18.7495C24.2623 19.0413 23.9198 19.2639 23.5403 19.3995C23.4529 18.852 23.3293 18.3108 23.1703 17.7795C23.0103 17.2895 22.8503 16.7795 22.6703 16.3795L23.3003 16.0995Z" fill="white"/>
<path d="M34.3314 6.60977C34.4705 6.61 34.6065 6.56818 34.7214 6.48978C34.8464 6.42129 34.9667 6.34444 35.0814 6.25977C35.4214 6.42977 35.7714 6.61977 36.0814 6.82977C36.3911 7.01707 36.6884 7.22417 36.9714 7.44977C36.8092 7.63061 36.6775 7.83665 36.5814 8.05978C36.4914 8.27978 36.4014 8.47977 36.3114 8.66977C36.2214 8.85977 36.1314 9.03978 36.0514 9.20978H36.3014C36.4593 9.20958 36.6118 9.15281 36.7314 9.04977C36.858 8.95437 36.9783 8.85082 37.0914 8.73978C37.4912 8.91631 37.8818 9.11323 38.2614 9.32977C38.6061 9.51027 38.94 9.71061 39.2614 9.92978C39.1707 10.0634 39.0905 10.2038 39.0214 10.3498C38.9381 10.5053 38.8839 10.6747 38.8614 10.8498C38.7814 11.4598 38.7114 11.9598 38.6314 12.3498C38.5751 12.6893 38.4915 13.0237 38.3814 13.3498C38.2905 13.575 38.1451 13.7741 37.9584 13.9294C37.7717 14.0848 37.5494 14.1914 37.3114 14.2398L38.3114 14.7398C38.2301 14.9391 38.16 15.1427 38.1014 15.3498C38.018 15.5911 37.974 15.8444 37.9714 16.0998V17.8598C38.0654 17.7808 38.1524 17.6938 38.2314 17.5998L38.4714 17.2898C38.6814 17.4598 38.8914 17.6398 39.1014 17.8398C39.3015 18.023 39.4917 18.2166 39.6714 18.4198L39.4814 19.4198H25.7814L25.6914 18.0198H27.3214V14.9198L26.9314 15.1598L26.5214 15.3898L25.7914 14.7598C26.2843 14.2911 26.7454 13.79 27.1714 13.2598C27.5576 12.8007 27.8929 12.3011 28.1714 11.7698C28.4344 11.2363 28.6293 10.6719 28.7514 10.0898C28.8903 9.43063 28.9805 8.76216 29.0214 8.08978H26.9014L26.8414 6.64978L34.3314 6.60977ZM31.1614 10.6598L31.7314 10.8398L32.2714 11.0098C32.3406 10.9136 32.4041 10.8134 32.4614 10.7098C32.5214 10.6098 32.5714 10.4998 32.6214 10.3998H30.9814C30.759 11.1073 30.4392 11.7804 30.0314 12.3998C29.6232 13.0208 29.1205 13.5741 28.5414 14.0398L29.2114 14.2098C29.4314 14.2598 29.6414 14.3298 29.8514 14.3998H35.3514C35.4992 14.3943 35.6406 14.3377 35.7514 14.2398C35.8751 14.1521 35.9862 14.0478 36.0814 13.9298V13.8698C36.0756 13.759 36.0485 13.6503 36.0014 13.5498C35.9611 13.48 35.8973 13.4269 35.8214 13.3998L34.8214 13.0498V12.2798L36.1514 12.3698C36.2414 12.3698 36.3014 12.3698 36.3214 12.3698C36.3568 12.3341 36.3811 12.289 36.3914 12.2398C36.4514 11.9698 36.4914 11.7298 36.5314 11.5198C36.5714 11.3098 36.6014 11.0198 36.6414 10.6698H35.8714C35.7613 10.6763 35.6546 10.7107 35.5614 10.7698C35.4414 10.8398 35.2814 10.9298 35.1014 11.0498L34.6014 10.7098L34.5414 10.8098L34.2414 11.2998C34.1453 11.4595 34.0348 11.6101 33.9114 11.7498L34.3414 11.9998L34.7614 12.2598C34.62 12.6591 34.4285 13.0388 34.1914 13.3898C33.9516 13.719 33.6691 14.0149 33.3514 14.2698L32.8614 13.6098L32.4314 13.0598C31.6153 13.5434 30.7418 13.9231 29.8314 14.1898L29.3514 13.5898C30.113 13.1303 30.8208 12.5869 31.4614 11.9698L30.6814 11.1898L31.1614 10.6598ZM29.5514 18.0198H30.3214V15.8198H29.5514V18.0198ZM31.4514 8.01978C31.4514 8.21978 31.4514 8.39977 31.3714 8.57977C31.3511 8.75135 31.3211 8.92163 31.2814 9.08978H32.6314C32.7409 9.08816 32.848 9.05708 32.9414 8.99979C33.0447 8.93185 33.1417 8.85487 33.2314 8.76978L33.5114 8.91977L33.8314 9.10977C33.9284 8.93838 34.0152 8.76141 34.0914 8.57977C34.1514 8.41977 34.2314 8.24977 34.3014 8.04977L31.4514 8.01978ZM32.2614 18.0198H33.0514V15.8198H32.2614V18.0198ZM34.9914 15.8198V18.0198H35.7714V15.8198H34.9914Z" fill="white"/>
</g>
</g>
<path d="M53.9969 12.4002H44.5969C44.1969 12.4002 43.7969 12.0002 43.7969 11.6002C43.7969 11.2002 44.1969 10.8002 44.5969 10.8002H51.9969L50.0969 8.9002C49.7969 8.6002 49.7969 8.1002 50.0969 7.8002C50.3969 7.5002 50.8969 7.5002 51.1969 7.8002L54.4969 11.1002C54.6969 11.3002 54.7969 11.7002 54.6969 12.0002C54.5969 12.2002 54.2969 12.4002 53.9969 12.4002Z" fill="white"/>
<path d="M47.797 18.5006C47.597 18.5006 47.397 18.4006 47.197 18.3006L43.997 15.0006C43.797 14.8006 43.697 14.4006 43.797 14.1006C43.897 13.8006 44.197 13.6006 44.497 13.6006H53.997C54.397 13.6006 54.797 14.0006 54.797 14.4006C54.797 14.8006 54.397 15.2006 53.997 15.2006H46.497L48.397 17.1006C48.697 17.4006 48.697 17.9006 48.397 18.2006C48.197 18.4006 47.997 18.5006 47.797 18.5006Z" fill="white"/>
<defs>
<radialGradient id="paint0_radial" cx="0" cy="0" r="1" gradientUnits="userSpaceOnUse" gradientTransform="translate(3.99376 4) rotate(17.508) scale(66.4807 55.4402)">
<stop stop-color="#FFA435"/>
<stop offset="0.966695" stop-color="#FF9635"/>
</radialGradient>
<clipPath id="clip0">
<rect width="28" height="13" fill="white" transform="translate(11 6.5)"/>
</clipPath>
<clipPath id="clip1">
<rect width="28.71" height="13.85" fill="white" transform="translate(11 6)"/>
</clipPath>
</defs>
</svg>
