<svg width="19" height="19" viewBox="0 0 19 19" fill="none" xmlns="http://www.w3.org/2000/svg">
<path d="M15.125 2.75H3.875C3.25368 2.75 2.75 3.25368 2.75 3.875V15.125C2.75 15.7463 3.25368 16.25 3.875 16.25H15.125C15.7463 16.25 16.25 15.7463 16.25 15.125V3.875C16.25 3.25368 15.7463 2.75 15.125 2.75Z" stroke="#88888B" stroke-linejoin="round"/>
<path d="M9.5 11.2344V9.73438C10.7426 9.73438 11.75 8.72701 11.75 7.48438C11.75 6.24174 10.7426 5.23438 9.5 5.23438C8.25736 5.23438 7.25 6.24174 7.25 7.48438" stroke="#88888B" stroke-linecap="round" stroke-linejoin="round"/>
<path fill-rule="evenodd" clip-rule="evenodd" d="M9.50078 14.2C9.88738 14.2 10.2008 13.8866 10.2008 13.5C10.2008 13.1135 9.88738 12.8 9.50078 12.8C9.11419 12.8 8.80078 13.1135 8.80078 13.5C8.80078 13.8866 9.11419 14.2 9.50078 14.2Z" fill="#88888B"/>
</svg>
