<svg width="43" height="44" viewBox="0 0 43 44" fill="none" xmlns="http://www.w3.org/2000/svg">
<g clip-path="url(#clip0)">
<path d="M21.5089 43.5178C33.3879 43.5178 43.0178 33.8879 43.0178 22.0089C43.0178 10.1299 33.3879 0.5 21.5089 0.5C9.62986 0.5 0 10.1299 0 22.0089C0 33.8879 9.62986 43.5178 21.5089 43.5178Z" fill="black"/>
<path d="M29.1399 28.5634L29.2821 28.7055L32.0714 31.4948H26.5106H21.6427H21.5005C15.6555 31.4948 10.9297 27.2487 10.9297 22.0255C10.9297 16.8023 15.6732 12.5562 21.5005 12.5562C27.3278 12.5562 32.0714 16.8023 32.0714 22.0255C32.0714 24.566 30.9521 26.8756 29.1399 28.5634ZM24.8406 23.6955C25.7644 23.6955 26.5106 22.9493 26.5106 22.0255C26.5106 21.1017 25.7644 20.3555 24.8406 20.3555C23.9167 20.3555 23.1705 21.1017 23.1705 22.0255C23.1705 22.9493 23.9167 23.6955 24.8406 23.6955ZM18.1605 23.6955C19.0843 23.6955 19.8305 22.9493 19.8305 22.0255C19.8305 21.1017 19.0843 20.3555 18.1605 20.3555C17.2367 20.3555 16.4905 21.1017 16.4905 22.0255C16.4905 22.9493 17.2367 23.6955 18.1605 23.6955Z" fill="white"/>
</g>
<defs>
<clipPath id="clip0">
<rect width="43" height="43" fill="white" transform="translate(0 0.5)"/>
</clipPath>
</defs>
</svg>
