<svg width="42" height="23" viewBox="0 0 42 23" fill="none" xmlns="http://www.w3.org/2000/svg">
<rect y="0.5" width="42" height="22" rx="5" fill="#EAEAEA"/>
<path d="M10.314 6.672C9.651 6.672 9.339 6.659 8.884 6.62C8.923 6.971 8.936 7.218 8.936 7.595V8.557C8.936 9.012 8.923 9.22 8.871 9.519H10.288V7.894H18.751V9.519H20.155C20.116 9.207 20.103 8.973 20.103 8.557V7.569C20.103 7.192 20.116 6.958 20.155 6.62C19.674 6.659 19.375 6.672 18.712 6.672H15.28C14.994 6.022 14.981 5.983 14.591 5.333L13.161 5.853C13.421 6.243 13.499 6.386 13.655 6.672H10.314ZM13.2 11.235C12.082 10.598 11.705 10.429 10.73 10.13L9.846 11.118C10.99 11.508 11.471 11.742 12.342 12.327L13.2 11.235ZM15.098 15.434C17.178 16.279 18.361 16.838 19.752 17.657L20.454 16.344C19.635 15.876 19.102 15.629 17.061 14.771C16.489 14.524 16.385 14.485 15.93 14.316L15.098 15.434ZM8.715 14.043C9.248 13.991 9.742 13.965 10.236 13.965H13.811C13.616 14.251 13.512 14.381 13.343 14.511C13.005 14.797 12.42 15.135 11.822 15.395C10.795 15.837 9.872 16.071 8.533 16.24C8.936 16.656 9.144 16.994 9.365 17.618C10.626 17.345 11.224 17.176 12.056 16.825C13.018 16.409 13.772 15.941 14.409 15.343C14.838 14.927 15.046 14.628 15.345 13.952H18.855C19.622 13.952 19.973 13.965 20.337 14.017V12.548C19.921 12.626 19.466 12.652 18.842 12.652H15.605C15.774 11.105 15.826 10.429 15.839 9.571C15.852 8.999 15.852 8.869 15.904 8.479H14.344C14.383 8.804 14.396 9.077 14.396 9.701C14.396 10.624 14.331 11.495 14.162 12.652H10.236C9.82 12.652 9.547 12.639 8.702 12.574L8.715 14.043ZM14.071 9.454C12.914 8.856 12.758 8.791 11.614 8.427L10.717 9.363C11.861 9.727 12.316 9.935 13.213 10.52L14.071 9.454ZM28.67 8.726C28.319 10.026 27.799 11.027 27.006 11.976C26.525 12.548 26.187 12.847 25.472 13.289C25.953 13.666 26.187 13.939 26.434 14.42C28.202 13.016 29.268 11.261 29.918 8.726H30.451C30.36 9.233 30.295 9.532 30.282 9.636C30.074 10.572 29.632 11.781 29.203 12.665C28.41 14.225 27.422 15.304 25.823 16.357C26.395 16.734 26.616 16.955 26.915 17.423C28.605 16.084 29.515 15.005 30.295 13.432C30.919 12.197 31.374 10.663 31.686 8.726H31.842C31.803 11.352 31.686 13.471 31.465 14.875C31.322 15.798 31.127 16.071 30.594 16.071C30.165 16.071 29.658 16.006 28.995 15.863C29.229 16.357 29.333 16.799 29.333 17.306V17.332C30.009 17.397 30.269 17.41 30.581 17.41C31.738 17.41 32.284 17.111 32.583 16.331C32.934 15.434 33.103 13.471 33.194 9.051C33.22 7.816 33.22 7.816 33.272 7.413C33.038 7.452 32.739 7.465 32.193 7.465H28.592C28.683 7.205 28.709 7.127 28.761 6.984C29.073 6.074 29.073 6.074 29.177 5.801L27.669 5.541C27.617 6.074 27.422 6.737 27.097 7.543C26.85 8.167 26.564 8.7 26.174 9.246V7.998C25.953 8.05 25.745 8.063 25.329 8.063H25.017V6.594C25.017 6.165 25.043 5.866 25.095 5.528H23.561C23.626 5.892 23.652 6.191 23.652 6.594V8.063H23.158C23.184 7.79 23.197 7.686 23.262 6.737L21.962 6.594C21.975 6.828 21.988 6.945 21.988 7.114C21.988 7.66 21.923 8.323 21.806 8.973C21.663 9.831 21.572 10.195 21.325 10.78C21.819 10.988 22.079 11.131 22.508 11.482C22.768 10.624 22.911 9.987 23.002 9.376H23.652V12.262C22.404 12.652 22.092 12.73 21.494 12.769L21.793 14.316C22.053 14.199 22.131 14.16 22.482 14.043C22.872 13.913 22.872 13.913 23.652 13.64V16.097C23.652 16.669 23.626 17.137 23.561 17.592H25.095C25.043 17.098 25.017 16.643 25.017 16.097V13.146C25.407 12.99 25.589 12.912 26.252 12.626L26.239 11.326C25.667 11.573 25.446 11.664 25.017 11.807V9.376H25.329C25.628 9.376 25.823 9.376 26.057 9.402C25.927 9.558 25.758 9.727 25.433 10.026C25.862 10.299 26.109 10.52 26.512 11.014C27.123 10.377 27.63 9.636 28.02 8.83C28.046 8.752 28.046 8.752 28.059 8.726H28.67Z" fill="#88888B"/>
</svg>
