<svg width="42" height="23" viewBox="0 0 42 23" fill="none" xmlns="http://www.w3.org/2000/svg">
<rect y="0.5" width="42" height="22" rx="5" fill="#EAEAEA"/>
<path d="M14.682 13.64C14.669 13.185 14.656 12.769 14.656 12.405V7.192H18.348V12.405C18.348 12.665 18.348 12.938 18.322 13.627L19.765 13.64C19.726 13.107 19.713 12.951 19.713 12.405V7.231C19.713 6.581 19.726 6.282 19.765 5.918C19.388 5.957 19.128 5.97 18.517 5.97H14.539C13.889 5.97 13.655 5.957 13.278 5.918C13.304 6.386 13.317 6.607 13.317 7.231V12.405C13.317 12.873 13.304 13.146 13.278 13.64H14.682ZM10.158 7.504V10.052H9.703C9.3 10.052 9.118 10.039 8.793 10V11.326C9.066 11.274 9.274 11.261 9.677 11.261H10.158V14.147C9.378 14.394 8.884 14.537 8.455 14.602L8.819 16.097C9.144 15.967 9.287 15.915 9.495 15.837C11.133 15.252 11.835 14.953 12.94 14.355V13.029C12.316 13.328 12.082 13.432 11.523 13.666V11.261H11.913C12.238 11.261 12.433 11.274 12.745 11.313V10C12.446 10.039 12.277 10.052 11.913 10.052H11.523V7.504H11.861C12.329 7.504 12.563 7.517 12.927 7.556V6.165C12.55 6.23 12.329 6.243 11.77 6.243H9.846C9.274 6.243 9.04 6.23 8.676 6.165V7.569C9.04 7.517 9.261 7.504 9.768 7.504H10.158ZM15.774 7.881C15.787 8.583 15.8 9.298 15.8 9.922C15.8 11.469 15.735 12.509 15.566 13.354C15.423 14.147 14.994 14.771 14.175 15.369C13.33 15.98 12.55 16.279 11.211 16.526C11.679 17.033 11.835 17.254 12.03 17.722C13.2 17.358 13.876 17.072 14.578 16.63C15.449 16.084 15.904 15.59 16.424 14.706V16.448C16.424 16.968 16.463 17.059 16.684 17.215C16.905 17.384 17.295 17.436 18.14 17.436C19.388 17.436 19.986 17.306 20.233 16.994C20.441 16.747 20.519 16.357 20.636 14.992C20.155 14.836 19.843 14.706 19.427 14.472C19.401 15.421 19.349 15.941 19.245 16.045C19.167 16.123 18.829 16.175 18.374 16.175C17.828 16.175 17.685 16.136 17.685 15.954V13.107L16.931 13.12C17.061 12.184 17.1 11.053 17.139 7.881H15.774ZM26.889 5.424C26.343 6.373 25.641 7.14 24.588 7.894C23.704 8.531 22.729 9.025 21.351 9.506C21.858 10.143 22.014 10.416 22.17 10.871C22.703 10.65 23.795 10.091 24.211 9.857V10.429C24.601 10.377 24.978 10.364 25.485 10.364H26.694V11.625H23.626C22.976 11.625 22.573 11.599 22.209 11.547V12.99C22.599 12.938 23.054 12.912 23.613 12.912H26.694V15.824H23.418C22.755 15.824 22.274 15.798 21.806 15.746V17.241C22.352 17.176 22.82 17.15 23.431 17.15H31.647C32.18 17.15 32.713 17.176 33.194 17.241V15.746C32.765 15.798 32.336 15.824 31.673 15.824H28.137V12.912H31.426C32.037 12.912 32.492 12.938 32.843 12.99V11.547C32.505 11.599 32.115 11.625 31.439 11.625H28.137V10.364H29.463C30.022 10.364 30.373 10.377 30.737 10.429V9.792C31.478 10.221 32.089 10.52 33.012 10.871C33.272 10.208 33.376 10.013 33.766 9.506C32.323 9.025 31.296 8.505 30.152 7.686C29.398 7.153 29.151 6.932 28.28 6.009C28.345 5.905 28.345 5.905 28.475 5.71L26.889 5.424ZM25.459 9.155C25.303 9.155 25.303 9.155 25.251 9.155C26.239 8.414 26.863 7.842 27.448 7.14C28.215 7.985 28.774 8.479 29.723 9.155C29.658 9.155 29.658 9.155 29.502 9.155H25.459ZM23.275 13.549C23.704 14.199 24.042 14.888 24.315 15.707L25.615 15.187C25.251 14.303 25.017 13.809 24.562 13.029L23.275 13.549ZM30.295 13.042C29.983 13.939 29.658 14.628 29.255 15.278L30.477 15.733C30.815 15.174 30.984 14.901 31.023 14.81C31.491 13.861 31.491 13.861 31.66 13.562L30.295 13.042Z" fill="#88888B"/>
</svg>
