<svg width="42" height="23" viewBox="0 0 42 23" fill="none" xmlns="http://www.w3.org/2000/svg">
<path d="M0 8.5C0 5.69974 0 4.29961 0.544967 3.23005C1.02433 2.28924 1.78924 1.52433 2.73005 1.04497C3.79961 0.5 5.19974 0.5 8 0.5H34C36.8003 0.5 38.2004 0.5 39.27 1.04497C40.2108 1.52433 40.9757 2.28924 41.455 3.23005C42 4.29961 42 5.69974 42 8.5V14.5C42 17.3003 42 18.7004 41.455 19.77C40.9757 20.7108 40.2108 21.4757 39.27 21.955C38.2004 22.5 36.8003 22.5 34 22.5H8C5.19974 22.5 3.79961 22.5 2.73005 21.955C1.78924 21.4757 1.02433 20.7108 0.544967 19.77C0 18.7004 0 17.3003 0 14.5V8.5Z" fill="#5797F5"/>
<path d="M16.723 11.404V10.338H18.374C18.543 10.338 18.751 10.338 18.998 10.351C19.128 10.364 19.232 10.364 19.284 10.364C19.518 10.364 19.518 10.364 19.661 10.377C19.622 10.013 19.609 9.701 19.609 9.155V7.309C19.609 6.711 19.622 6.451 19.661 6.048C19.284 6.1 18.855 6.113 18.231 6.113H14.084C13.382 6.113 13.018 6.1 12.641 6.048C12.68 6.425 12.693 6.737 12.693 7.231V9.129C12.693 9.675 12.68 10 12.641 10.39C12.992 10.351 13.395 10.338 13.967 10.338H15.345V11.404H13.2C12.615 11.404 12.199 11.378 11.783 11.339V12.782C12.199 12.73 12.693 12.704 13.2 12.704H14.747C14.292 13.315 14.006 13.627 13.499 14.082C12.784 14.732 12.108 15.2 11.263 15.642C11.744 16.175 11.822 16.292 12.147 16.929C12.732 16.578 13.122 16.292 13.707 15.772C14.474 15.083 14.851 14.628 15.371 13.757C15.358 14.537 15.345 14.992 15.345 15.135V16.357C15.345 16.786 15.319 17.15 15.267 17.566H16.801C16.749 17.163 16.723 16.786 16.723 16.37V15.135C16.723 14.797 16.71 14.147 16.684 13.77C17.217 14.602 17.581 15.031 18.244 15.616C18.699 16.019 18.972 16.227 19.895 16.851C20.194 16.253 20.389 15.954 20.766 15.46C19.947 15.07 19.401 14.719 18.686 14.134C18.114 13.653 17.854 13.393 17.295 12.704H19.037C19.44 12.704 19.934 12.73 20.415 12.782V11.326C19.986 11.378 19.479 11.404 18.998 11.404H16.723ZM14.058 7.387H18.218V9.064H14.058V7.387ZM9.82 16.032C9.82 16.643 9.794 17.033 9.742 17.553H11.237C11.185 17.033 11.172 16.604 11.172 16.045V8.908C11.653 7.959 11.9 7.374 12.173 6.49C12.29 6.087 12.29 6.087 12.368 5.905L10.912 5.437C10.847 5.892 10.665 6.555 10.418 7.205C9.885 8.609 9.183 9.701 8.221 10.65C8.533 11.248 8.598 11.43 8.845 12.223C9.313 11.729 9.521 11.443 9.846 10.91C9.82 11.664 9.82 11.911 9.82 12.34V16.032ZM21.715 13.887C22.209 13.822 22.703 13.796 23.236 13.796H26.811C26.616 14.095 26.512 14.212 26.343 14.355C26.005 14.654 25.42 15.005 24.822 15.278C23.795 15.746 22.872 15.993 21.533 16.175C21.936 16.591 22.144 16.929 22.365 17.553C23.587 17.293 24.159 17.124 24.965 16.773C25.953 16.344 26.733 15.85 27.383 15.226C27.825 14.784 28.033 14.485 28.345 13.783H32.492C32.869 13.783 33.077 13.796 33.337 13.861V12.379C32.921 12.457 32.492 12.496 31.842 12.496H28.605C28.748 11.157 28.826 10.091 28.839 9.207C28.852 8.635 28.852 8.505 28.904 8.115H27.344C27.383 8.414 27.396 8.804 27.396 9.246C27.396 10.195 27.318 11.391 27.162 12.496H23.236C22.82 12.496 22.547 12.483 21.702 12.418L21.715 13.887ZM26.2 10.988C25.043 10.39 24.419 10.13 23.184 9.766L22.3 10.754C23.639 11.222 24.315 11.521 25.342 12.067L26.2 10.988ZM27.071 9.116C26.018 8.544 25.537 8.336 24.159 7.894L23.262 8.843C24.536 9.259 25.16 9.532 26.213 10.182L27.071 9.116ZM27.981 15.46C28.735 15.772 29.671 16.162 30.425 16.513C31.179 16.851 31.478 17.007 32.622 17.683L33.415 16.422C32.791 16.045 32.258 15.785 31.27 15.343C30.594 15.044 29.385 14.537 28.826 14.316L27.981 15.46ZM32.336 6.126C31.959 6.165 31.556 6.191 31.101 6.191H23.496C22.833 6.191 22.482 6.178 22.092 6.139V7.582C22.391 7.53 22.599 7.504 23.015 7.504C23.197 7.491 23.327 7.491 23.392 7.491C23.457 7.478 23.509 7.478 23.522 7.478H31.127C30.971 7.985 30.789 8.401 30.438 8.96C30.867 9.116 30.932 9.155 31.764 9.688C32.011 9.259 32.362 8.427 32.596 7.777C32.765 7.27 32.83 7.153 33.051 6.841L32.336 6.126Z" fill="white"/>
</svg>
