<svg width="42" height="23" viewBox="0 0 42 23" fill="none" xmlns="http://www.w3.org/2000/svg">
<path d="M0 8.5C0 5.69974 0 4.29961 0.544967 3.23005C1.02433 2.28924 1.78924 1.52433 2.73005 1.04497C3.79961 0.5 5.19974 0.5 8 0.5H34C36.8003 0.5 38.2004 0.5 39.27 1.04497C40.2108 1.52433 40.9757 2.28924 41.455 3.23005C42 4.29961 42 5.69974 42 8.5V14.5C42 17.3003 42 18.7004 41.455 19.77C40.9757 20.7108 40.2108 21.4757 39.27 21.955C38.2004 22.5 36.8003 22.5 34 22.5H8C5.19974 22.5 3.79961 22.5 2.73005 21.955C1.78924 21.4757 1.02433 20.7108 0.544967 19.77C0 18.7004 0 17.3003 0 14.5V8.5Z" fill="#4EC3C8"/>
<path d="M16.723 11.404V10.338H18.374C18.543 10.338 18.751 10.338 18.998 10.351C19.128 10.364 19.232 10.364 19.284 10.364C19.518 10.364 19.518 10.364 19.661 10.377C19.622 10.013 19.609 9.701 19.609 9.155V7.309C19.609 6.711 19.622 6.451 19.661 6.048C19.284 6.1 18.855 6.113 18.231 6.113H14.084C13.382 6.113 13.018 6.1 12.641 6.048C12.68 6.425 12.693 6.737 12.693 7.231V9.129C12.693 9.675 12.68 10 12.641 10.39C12.992 10.351 13.395 10.338 13.967 10.338H15.345V11.404H13.2C12.615 11.404 12.199 11.378 11.783 11.339V12.782C12.199 12.73 12.693 12.704 13.2 12.704H14.747C14.292 13.315 14.006 13.627 13.499 14.082C12.784 14.732 12.108 15.2 11.263 15.642C11.744 16.175 11.822 16.292 12.147 16.929C12.732 16.578 13.122 16.292 13.707 15.772C14.474 15.083 14.851 14.628 15.371 13.757C15.358 14.537 15.345 14.992 15.345 15.135V16.357C15.345 16.786 15.319 17.15 15.267 17.566H16.801C16.749 17.163 16.723 16.786 16.723 16.37V15.135C16.723 14.797 16.71 14.147 16.684 13.77C17.217 14.602 17.581 15.031 18.244 15.616C18.699 16.019 18.972 16.227 19.895 16.851C20.194 16.253 20.389 15.954 20.766 15.46C19.947 15.07 19.401 14.719 18.686 14.134C18.114 13.653 17.854 13.393 17.295 12.704H19.037C19.44 12.704 19.934 12.73 20.415 12.782V11.326C19.986 11.378 19.479 11.404 18.998 11.404H16.723ZM14.058 7.387H18.218V9.064H14.058V7.387ZM9.82 16.032C9.82 16.643 9.794 17.033 9.742 17.553H11.237C11.185 17.033 11.172 16.604 11.172 16.045V8.908C11.653 7.959 11.9 7.374 12.173 6.49C12.29 6.087 12.29 6.087 12.368 5.905L10.912 5.437C10.847 5.892 10.665 6.555 10.418 7.205C9.885 8.609 9.183 9.701 8.221 10.65C8.533 11.248 8.598 11.43 8.845 12.223C9.313 11.729 9.521 11.443 9.846 10.91C9.82 11.664 9.82 11.911 9.82 12.34V16.032ZM32.518 8.414C32.141 8.453 31.738 8.479 31.283 8.479H28.072V7.582H30.711C31.517 7.582 31.868 7.595 32.271 7.647V6.282C31.777 6.334 31.335 6.36 30.698 6.36H28.098V6.347C28.098 6.048 28.111 5.944 28.176 5.606H26.642C26.707 5.957 26.72 6.061 26.72 6.347V6.36H24.432C23.808 6.36 23.353 6.334 22.859 6.282V7.647C23.275 7.595 23.613 7.582 24.419 7.582H26.72V8.479H23.366C22.703 8.479 22.352 8.466 21.962 8.427V9.792C22.339 9.727 22.547 9.701 23.145 9.688C23.197 9.688 23.249 9.688 23.262 9.688C23.327 9.688 23.379 9.688 23.392 9.688H31.374C31.231 10.156 31.01 10.611 30.607 11.261C31.075 11.43 31.283 11.547 31.894 11.924C32.271 11.261 32.674 10.377 32.921 9.662C32.986 9.454 33.103 9.259 33.233 9.077L32.518 8.414ZM28.085 15.733C30.347 16.461 31.062 16.747 32.804 17.579L33.519 16.266C32.232 15.707 31.166 15.33 28.995 14.68L28.085 15.733ZM25.771 12.08C24.315 11.313 24.016 11.183 23.015 10.884L22.235 11.742C23.184 12.08 23.548 12.249 24.9 12.977L23.236 12.964C22.729 12.964 22.573 12.951 21.702 12.886V14.29C22.196 14.225 22.703 14.199 23.236 14.199H26.733C26.564 14.446 26.473 14.55 26.33 14.667C26.031 14.914 25.472 15.213 24.9 15.421C23.925 15.798 22.976 16.006 21.533 16.175C21.936 16.591 22.144 16.929 22.365 17.553C24.887 17.046 26.317 16.461 27.396 15.499C27.812 15.122 28.007 14.849 28.306 14.186H31.816C32.765 14.186 32.765 14.186 33.337 14.264V12.847C32.869 12.938 32.505 12.964 31.803 12.964H28.605C28.735 12.366 28.787 11.976 28.839 11.222C28.852 10.767 28.865 10.585 28.917 10H27.344C27.396 10.364 27.409 10.585 27.409 10.78C27.409 11.495 27.331 12.223 27.175 12.977H25.069L25.771 12.08ZM26.941 10.871C25.576 10.117 25.524 10.091 24.315 9.701L23.496 10.52C24.601 10.884 24.913 11.027 26.161 11.807L26.941 10.871Z" fill="white"/>
</svg>
