<svg width="42" height="23" viewBox="0 0 42 23" fill="none" xmlns="http://www.w3.org/2000/svg">
<path d="M0 8.5C0 5.69974 0 4.29961 0.544967 3.23005C1.02433 2.28924 1.78924 1.52433 2.73005 1.04497C3.79961 0.5 5.19974 0.5 8 0.5H34C36.8003 0.5 38.2004 0.5 39.27 1.04497C40.2108 1.52433 40.9757 2.28924 41.455 3.23005C42 4.29961 42 5.69974 42 8.5V14.5C42 17.3003 42 18.7004 41.455 19.77C40.9757 20.7108 40.2108 21.4757 39.27 21.955C38.2004 22.5 36.8003 22.5 34 22.5H8C5.19974 22.5 3.79961 22.5 2.73005 21.955C1.78924 21.4757 1.02433 20.7108 0.544967 19.77C0 18.7004 0 17.3003 0 14.5V8.5Z" fill="#FFA435"/>
<path d="M11.536 11.963C11.783 12.314 11.939 12.548 12.16 12.938L12.914 11.989C12.42 11.378 11.939 10.871 11.549 10.533V10.195H11.744C12.225 10.195 12.472 10.208 12.732 10.247V9.233C12.823 9.363 12.875 9.467 12.927 9.597C13.304 9.272 13.343 9.246 13.486 9.077C13.525 9.012 13.577 8.96 13.668 8.856V9.636C13.915 9.61 14.461 9.597 14.903 9.597H18.231V10.273H14.526C13.902 10.273 13.447 10.26 13.135 10.221V11.456C13.473 11.417 13.98 11.404 14.526 11.404H18.231V12.132H14.253C13.668 12.132 13.252 12.119 12.979 12.08V13.367C13.304 13.328 13.746 13.315 14.253 13.315H16.047L15.423 13.887H14.071C14.11 14.199 14.123 14.42 14.123 14.914V16.5C14.123 17.241 14.513 17.436 15.969 17.436C17.256 17.436 17.906 17.319 18.231 17.02C18.465 16.825 18.504 16.669 18.634 15.46C18.062 15.369 17.867 15.317 17.425 15.161C17.425 15.746 17.347 16.045 17.178 16.136C17.048 16.214 16.775 16.24 16.177 16.24C15.579 16.24 15.436 16.188 15.436 15.941V14.901C15.436 14.446 15.449 14.277 15.475 13.991C16.06 14.472 16.281 14.719 16.827 15.408L17.75 14.615C17.191 14.004 16.892 13.692 16.489 13.315H18.166C18.608 13.315 19.258 13.328 19.544 13.354C19.531 13.042 19.518 12.782 19.518 12.6V9.129C19.518 8.934 19.518 8.674 19.531 8.57C19.544 8.427 19.544 8.427 19.544 8.375C19.323 8.401 18.686 8.414 18.153 8.414H17.581C17.672 8.284 17.867 7.998 17.997 7.764C18.296 7.283 18.374 7.153 18.491 7.01L17.932 6.295C17.711 6.347 17.516 6.36 16.944 6.36H15.501C15.618 6.139 15.696 6.009 15.865 5.671L14.461 5.385C13.876 6.789 13.187 7.673 12.004 8.531C12.186 8.661 12.329 8.791 12.472 8.934C12.329 8.947 11.952 8.947 11.77 8.947H11.536V7.166C11.9 7.049 12.017 7.01 12.368 6.867C12.576 6.789 12.654 6.75 12.771 6.711C12.849 6.685 12.862 6.672 12.901 6.659L12.134 5.489C11.913 5.658 11.822 5.71 11.562 5.801C10.548 6.191 9.898 6.347 8.494 6.555C8.728 7.01 8.793 7.166 9.014 7.777C9.508 7.686 9.677 7.66 10.223 7.53V8.947H9.573C9.131 8.947 8.923 8.934 8.585 8.882V10.26C8.897 10.208 9.131 10.195 9.547 10.195H10.093C9.625 11.703 9.092 12.743 8.312 13.679C8.637 14.16 8.78 14.472 8.975 15.057C9.586 14.147 9.898 13.51 10.314 12.288C10.249 13.133 10.223 13.536 10.223 14.03V16.058C10.223 16.695 10.21 17.059 10.145 17.579H11.614C11.549 17.163 11.536 16.877 11.536 16.11V16.045V11.963ZM14.214 8.414C14.565 8.011 14.643 7.907 14.89 7.504H16.723C16.359 8.154 16.294 8.245 16.151 8.414H14.968H14.214ZM12.758 13.874C12.446 15.187 12.186 15.85 11.653 16.63L12.797 17.332C13.278 16.461 13.369 16.227 13.954 14.212L12.758 13.874ZM20.688 16.461C20.259 15.538 19.869 14.849 19.167 13.783L18.075 14.316C18.738 15.304 19.063 15.941 19.518 17.163L20.688 16.461ZM31.465 9.259C31.374 10.13 31.296 10.611 31.153 11.105C31.062 11.456 30.932 11.56 30.62 11.56C30.386 11.56 30.126 11.534 29.827 11.482C29.775 11.482 29.71 11.469 29.619 11.456C29.775 11.937 29.827 12.184 29.892 12.73C30.282 12.756 30.49 12.769 30.802 12.769C31.777 12.769 32.089 12.626 32.336 12.054C32.531 11.599 32.752 10.546 32.908 9.155C32.999 8.414 33.025 8.193 33.051 7.998C32.739 8.037 32.427 8.05 31.959 8.05H30.503C30.62 7.712 30.854 6.841 30.997 6.243C31.036 6.087 31.036 6.061 31.062 5.983C30.672 6.022 30.23 6.035 29.658 6.035H23.665C23.015 6.035 22.521 6.009 22.157 5.957V7.335C22.521 7.283 23.067 7.257 23.665 7.257H24.458C24.315 8.427 24.146 9.103 23.808 9.766C23.327 10.728 22.599 11.495 21.455 12.223C21.858 12.574 22.144 12.873 22.417 13.276C23.951 12.145 24.757 11.092 25.355 9.454H27.786C27.578 9.857 27.435 10.078 27.188 10.338C26.603 10.052 26.187 9.857 25.94 9.753L25.147 10.494C25.732 10.754 25.914 10.845 26.33 11.079C25.641 11.547 24.978 11.82 23.86 12.093C24.25 12.535 24.354 12.665 24.588 13.107C25.719 12.795 26.668 12.327 27.383 11.716C27.994 12.106 28.384 12.392 28.813 12.808L29.58 11.794C29.151 11.469 28.696 11.17 28.228 10.897C28.54 10.546 28.995 9.857 29.307 9.259H31.465ZM28.787 8.271C28.553 8.297 28.358 8.31 27.994 8.31H25.68C25.784 7.829 25.784 7.803 25.849 7.257H29.385C29.216 7.933 29.151 8.18 29.021 8.518L28.787 8.271ZM22.859 15.993H22.521C22.157 15.993 21.845 15.98 21.559 15.928V17.254C21.91 17.215 22.521 17.189 23.015 17.189H31.959C32.427 17.189 32.986 17.215 33.428 17.254V15.928C33.155 15.98 32.869 15.993 32.453 15.993H32.102V14.121C32.102 13.705 32.115 13.445 32.154 13.146C31.699 13.172 31.283 13.185 30.906 13.185H24.094C23.6 13.185 23.223 13.172 22.807 13.146C22.846 13.471 22.859 13.783 22.859 14.186V15.993ZM24.198 14.381H25.576V15.993H24.198V14.381ZM26.759 14.381H28.111V15.993H26.759V14.381ZM29.294 14.381H30.75V15.993H29.294V14.381Z" fill="white"/>
</svg>
