<svg width="42" height="23" viewBox="0 0 42 23" fill="none" xmlns="http://www.w3.org/2000/svg">
<path d="M0 8.5C0 5.69974 0 4.29961 0.544967 3.23005C1.02433 2.28924 1.78924 1.52433 2.73005 1.04497C3.79961 0.5 5.19974 0.5 8 0.5H34C36.8003 0.5 38.2004 0.5 39.27 1.04497C40.2108 1.52433 40.9757 2.28924 41.455 3.23005C42 4.29961 42 5.69974 42 8.5V14.5C42 17.3003 42 18.7004 41.455 19.77C40.9757 20.7108 40.2108 21.4757 39.27 21.955C38.2004 22.5 36.8003 22.5 34 22.5H8C5.19974 22.5 3.79961 22.5 2.73005 21.955C1.78924 21.4757 1.02433 20.7108 0.544967 19.77C0 18.7004 0 17.3003 0 14.5V8.5Z" fill="#FF9A90"/>
<path d="M14.578 10.539C14.383 12.437 14.045 13.646 13.33 14.907C12.849 15.804 12.498 16.233 11.601 17.104C12.03 17.455 12.264 17.689 12.654 18.196C13.707 17.091 14.305 16.233 14.799 15.115C15.371 13.841 15.761 12.281 15.93 10.539H19.128C19.739 10.539 20.025 10.552 20.402 10.604V9.135C20.077 9.187 19.778 9.2 19.128 9.2H16.008C16.034 8.29 16.047 7.731 16.047 7.536V7.12C16.047 6.782 16.06 6.392 16.086 6.132H14.591C14.656 6.47 14.682 7.016 14.682 7.679C14.682 8.108 14.669 8.667 14.656 9.2H13.057C12.446 9.2 12.147 9.187 11.848 9.135V10.604C12.173 10.552 12.498 10.539 13.057 10.539H14.578ZM16.112 11.124C16.164 11.527 16.19 12.138 16.19 12.58V16.831C16.19 17.325 16.307 17.533 16.645 17.689C16.944 17.806 17.308 17.845 18.179 17.845C19.453 17.845 19.921 17.702 20.207 17.208C20.454 16.779 20.532 16.272 20.597 14.686C20.064 14.595 19.661 14.452 19.167 14.192V14.647C19.167 15.362 19.141 15.817 19.063 16.155C19.011 16.467 18.881 16.519 18.257 16.519C17.62 16.519 17.516 16.48 17.516 16.207V12.801C17.516 12.034 17.529 11.644 17.581 11.124H16.112ZM11.198 9.122C11.445 8.55 11.731 7.783 11.874 7.341C11.939 7.12 12.004 6.938 12.043 6.821C12.082 6.717 12.16 6.496 12.173 6.457L10.769 5.963C10.665 6.613 10.6 6.821 10.301 7.666C9.742 9.213 9.079 10.266 8.104 11.15C8.468 11.592 8.637 11.891 8.897 12.515C9.352 12.073 9.599 11.774 9.937 11.267C9.911 11.787 9.898 12.216 9.898 12.814V16.363C9.898 17.052 9.872 17.572 9.82 18.04H11.263C11.211 17.533 11.198 17.078 11.198 16.363V9.122ZM17.022 6.938C17.724 7.523 18.101 7.952 18.79 8.979L19.804 8.121C18.959 7.094 18.894 7.029 18.01 6.223L17.022 6.938ZM21.715 14.387C22.209 14.322 22.703 14.296 23.236 14.296H26.811C26.616 14.595 26.512 14.712 26.343 14.855C26.005 15.154 25.42 15.505 24.822 15.778C23.795 16.246 22.872 16.493 21.533 16.675C21.936 17.091 22.144 17.429 22.365 18.053C23.587 17.793 24.159 17.624 24.965 17.273C25.953 16.844 26.733 16.35 27.383 15.726C27.825 15.284 28.033 14.985 28.345 14.283H32.492C32.869 14.283 33.077 14.296 33.337 14.361V12.879C32.921 12.957 32.492 12.996 31.842 12.996H28.605C28.748 11.657 28.826 10.591 28.839 9.707C28.852 9.135 28.852 9.005 28.904 8.615H27.344C27.383 8.914 27.396 9.304 27.396 9.746C27.396 10.695 27.318 11.891 27.162 12.996H23.236C22.82 12.996 22.547 12.983 21.702 12.918L21.715 14.387ZM26.2 11.488C25.043 10.89 24.419 10.63 23.184 10.266L22.3 11.254C23.639 11.722 24.315 12.021 25.342 12.567L26.2 11.488ZM27.071 9.616C26.018 9.044 25.537 8.836 24.159 8.394L23.262 9.343C24.536 9.759 25.16 10.032 26.213 10.682L27.071 9.616ZM27.981 15.96C28.735 16.272 29.671 16.662 30.425 17.013C31.179 17.351 31.478 17.507 32.622 18.183L33.415 16.922C32.791 16.545 32.258 16.285 31.27 15.843C30.594 15.544 29.385 15.037 28.826 14.816L27.981 15.96ZM32.336 6.626C31.959 6.665 31.556 6.691 31.101 6.691H23.496C22.833 6.691 22.482 6.678 22.092 6.639V8.082C22.391 8.03 22.599 8.004 23.015 8.004C23.197 7.991 23.327 7.991 23.392 7.991C23.457 7.978 23.509 7.978 23.522 7.978H31.127C30.971 8.485 30.789 8.901 30.438 9.46C30.867 9.616 30.932 9.655 31.764 10.188C32.011 9.759 32.362 8.927 32.596 8.277C32.765 7.77 32.83 7.653 33.051 7.341L32.336 6.626Z" fill="white"/>
</svg>
