<svg width="40" height="40" viewBox="0 0 40 40" fill="none" xmlns="http://www.w3.org/2000/svg">
<rect opacity="0.1" width="40" height="40" rx="7.61905" fill="#4EC3C8"/>
<mask id="mask0" mask-type="alpha" maskUnits="userSpaceOnUse" x="0" y="0" width="40" height="40">
<rect width="40" height="40" rx="7.61905" fill="#4EC3C8"/>
</mask>
<g mask="url(#mask0)">
<circle cx="39.5238" cy="-0.476191" r="26.1905" stroke="#4EC3C8" stroke-width="6.66667"/>
<path fill-rule="evenodd" clip-rule="evenodd" d="M39.5238 22.381C52.1475 22.381 62.381 12.1475 62.381 -0.476191C62.381 -13.0998 52.1475 -23.3333 39.5238 -23.3333C26.9002 -23.3333 16.6667 -13.0998 16.6667 -0.476191C16.6667 12.1475 26.9002 22.381 39.5238 22.381ZM39.5238 29.0476C55.8294 29.0476 69.0476 15.8294 69.0476 -0.476191C69.0476 -16.7817 55.8294 -30 39.5238 -30C23.2183 -30 10 -16.7817 10 -0.476191C10 15.8294 23.2183 29.0476 39.5238 29.0476Z" fill="url(#paint0_radial)"/>
</g>
<defs>
<radialGradient id="paint0_radial" cx="0" cy="0" r="1" gradientUnits="userSpaceOnUse" gradientTransform="translate(13.6847 -20.9157) rotate(37.8293) scale(74.0591 104.278)">
<stop stop-color="#02AAB0"/>
<stop offset="0.966695" stop-color="#00CDAC"/>
</radialGradient>
</defs>
</svg>
