<svg width="227" height="255" viewBox="0 0 227 255" fill="none" xmlns="http://www.w3.org/2000/svg">
<g clip-path="url(#clip0)">
<path d="M151.952 26.5959L144.334 41.6981L161.441 50.5189L168.925 35.4167L163.446 24.7249L151.952 26.5959Z" fill="#EDE7E7" stroke="#040404" stroke-width="4.00943" stroke-miterlimit="10" stroke-linejoin="round"/>
<path d="M138.587 2.67269C139.79 0.267028 153.823 4.6774 169.994 12.429C186.166 20.1806 198.461 28.4667 197.259 30.8724L192.046 40.495C190.71 43.168 176.543 39.1585 160.372 31.407C144.2 23.6554 132.038 15.1019 133.375 12.429L138.587 2.67269Z" fill="white" stroke="#040404" stroke-width="4.00943" stroke-miterlimit="10"/>
<path d="M220.562 173.689C237.08 116.074 205.432 56.4549 149.874 40.5268C94.3162 24.5986 35.8871 58.3929 19.369 116.008C2.85089 173.624 34.4989 233.243 90.0568 249.171C145.615 265.099 204.044 231.305 220.562 173.689Z" fill="#EDE7E7" stroke="#040404" stroke-width="4.00943" stroke-miterlimit="10"/>
<path d="M208.343 164.496C224.861 106.881 193.213 47.2617 137.655 31.3335C82.0976 15.4054 23.6685 49.1997 7.15036 106.815C-9.36774 164.431 22.2803 224.05 77.8381 239.978C133.396 255.906 191.825 222.112 208.343 164.496Z" fill="white" stroke="#040404" stroke-width="4.00943" stroke-miterlimit="10"/>
<path d="M82.9893 211.03C81.7865 211.03 80.5837 210.763 79.5145 210.228L76.4406 208.624C74.5695 207.689 73.233 206.085 72.6984 204.214C72.1638 202.343 72.2975 200.204 73.0994 198.467L78.9799 186.973C79.9154 185.236 79.2472 183.098 77.3761 182.162L76.8415 181.895C76.3069 181.627 75.7723 181.494 75.2377 181.494C73.9013 181.494 72.6984 182.296 72.0302 183.499L66.1497 194.992C64.8132 197.532 62.2739 199.135 59.3337 199.135C58.1308 199.135 56.928 198.868 55.8588 198.333L52.7849 196.73C49.0428 194.859 47.5727 190.181 49.4437 186.439L55.4579 174.544C56.3934 172.807 55.7252 170.668 53.9877 169.733C52.5176 168.931 51.0475 168.263 49.5774 167.461L38.4846 161.714C36.4799 160.645 35.0098 158.907 34.4752 156.635C33.9406 154.497 34.4752 152.225 35.678 150.488L39.0192 144.741V144.607C40.3557 142.87 42.3604 141.934 44.766 141.934C46.2362 141.934 47.7063 142.335 49.0428 143.003C51.5821 144.34 54.255 145.543 54.255 145.543L54.3887 145.676C54.3887 145.676 55.3242 146.211 56.3934 146.211C57.0616 146.211 57.9972 146.077 58.6654 144.607L88.4689 86.2029C88.6025 86.0693 88.6025 85.9356 88.6025 85.6683C88.6025 85.5347 88.7362 85.401 88.7362 85.1337C90.2063 81.1243 85.5286 78.9859 84.994 78.7186H84.8604H84.7267C84.7267 78.7186 82.5884 77.5158 80.3164 76.4466C78.4453 75.5111 77.1088 73.9073 76.4406 72.0363C75.7723 70.0315 75.906 68.0268 76.8415 66.1558L78.8462 62.28C80.1827 59.7407 82.722 58.1369 85.6623 58.1369C86.8651 58.1369 88.0679 58.4042 89.1371 58.9388L103.972 66.5567C104.507 66.824 105.041 67.0913 105.576 67.3586C106.11 67.6259 106.645 67.7595 107.18 67.7595C108.516 67.7595 109.719 66.9576 110.387 65.7548L116.268 54.1275C117.604 51.5881 120.143 49.9844 123.084 49.9844C124.286 49.9844 125.489 50.2517 126.558 50.7863L129.632 52.39C133.375 54.2611 134.845 58.9388 132.974 62.6809L127.36 73.64C126.959 74.4419 126.826 75.5111 127.093 76.4466C127.36 77.3822 128.029 78.0504 128.964 78.585L129.499 78.8523C130.033 79.1196 130.568 79.2532 131.103 79.2532C132.439 79.2532 133.642 78.4514 134.31 77.2485L139.923 66.2894C141.26 63.7501 143.799 62.1463 146.739 62.1463C147.942 62.1463 149.145 62.4136 150.214 62.9482L153.288 64.552C155.159 65.4875 156.496 67.0913 157.03 68.9624C157.698 70.8334 157.431 72.9718 156.629 74.7092L150.481 86.7375C149.68 88.3413 150.081 90.346 151.551 91.2815C167.856 102.508 173.736 114.536 169.326 127.634L169.192 129.638C166.118 137.657 161.173 143.003 154.625 145.543C153.555 145.943 152.753 146.745 152.486 147.948C152.219 149.017 152.353 150.087 153.021 151.022C159.703 160.511 159.169 170.936 151.551 182.964C144.868 193.656 136.047 198.868 124.554 198.868C117.738 198.868 110.12 197.131 100.497 193.255C100.096 193.121 99.5616 192.987 99.1607 192.987C97.8242 192.987 96.6214 193.789 95.9532 194.992L89.8054 207.154C88.4689 209.426 85.7959 211.03 82.9893 211.03ZM98.3588 136.722C97.0223 136.722 95.8195 137.524 95.1513 138.727L85.5286 157.704C84.5931 159.442 85.2613 161.58 87.1324 162.516C94.884 166.525 104.774 171.203 112.793 171.203C118.005 171.203 121.48 169.198 123.618 165.189C125.088 162.249 125.356 159.442 124.42 156.502C121.346 147.414 106.511 140.197 100.096 137.123C99.428 136.855 98.8934 136.722 98.3588 136.722ZM118.54 97.4293C117.203 97.4293 116 98.2312 115.332 99.4341L107.046 115.739C106.11 117.477 106.779 119.615 108.65 120.55C113.996 123.357 122.014 127.099 128.563 127.099C133.241 127.099 136.315 125.228 138.32 121.486C139.79 118.679 140.057 116.006 139.121 113.467C136.582 105.849 124.687 100.102 120.143 97.9639C119.609 97.563 119.074 97.4293 118.54 97.4293Z" fill="#FFE770"/>
<path d="M123.618 52.1226C124.42 52.1226 125.356 52.2562 126.158 52.7908L129.232 54.3946C132.038 55.8647 133.107 59.2059 131.637 61.8789L126.024 72.838C124.554 75.6446 125.757 78.9858 128.563 80.4559L129.098 80.7232C129.9 81.1242 130.702 81.2578 131.504 81.2578C133.508 81.2578 135.513 80.1886 136.449 78.1839L142.062 67.2248C142.997 65.2201 145.002 64.1509 147.007 64.1509C147.809 64.1509 148.744 64.2845 149.546 64.8191L152.62 66.4229C155.427 67.893 156.496 71.2342 155.026 73.9072L148.878 85.9355C147.675 88.4748 148.343 91.415 150.615 93.0188C164.381 102.641 172.935 113.868 167.054 128.836C163.98 136.722 159.169 141.399 153.556 143.538C150.081 144.874 148.878 149.017 151.016 151.957C156.629 159.976 157.298 169.599 149.546 181.761C142.73 192.453 134.31 196.729 124.287 196.729C117.203 196.729 109.452 194.591 100.898 191.25C100.23 190.983 99.4282 190.849 98.76 190.849C96.7553 190.849 94.7506 191.918 93.815 193.923L87.6672 206.085C86.7317 208.09 84.727 209.159 82.7223 209.159C81.9204 209.159 80.9848 209.025 80.183 208.491L77.1091 206.887C74.3025 205.417 73.2333 202.075 74.7034 199.402L80.5839 187.909C81.9204 185.236 80.8512 181.761 78.1782 180.424L77.6437 180.157C76.8418 179.756 75.9062 179.489 75.1043 179.489C73.0996 179.489 71.0949 180.558 70.1594 182.563L64.2789 194.057C63.3433 196.061 61.3386 197.13 59.3339 197.13C58.532 197.13 57.5965 196.997 56.7946 196.462L53.7207 194.858C50.9141 193.388 49.8449 190.047 51.315 187.374L57.3292 175.48C58.6657 172.807 57.5965 169.332 54.9235 167.995C53.4534 167.193 51.9833 166.525 50.5131 165.723L39.4204 159.976C36.3465 158.373 35.4109 154.497 37.4157 151.69L40.7569 146.077C41.6924 144.741 43.2962 144.206 44.8999 144.206C46.1028 144.206 47.172 144.473 48.2411 145.008C50.7804 146.344 53.587 147.681 53.587 147.681C53.587 147.681 54.9235 148.483 56.6609 148.483C57.9974 148.483 59.6012 147.948 60.804 145.81L78.3119 111.195L90.6075 87.272C90.7411 86.871 90.8748 86.4701 91.0084 86.0691C93.2804 80.1886 86.1971 77.1147 86.1971 77.1147C86.1971 77.1147 84.0587 75.9119 81.7867 74.7091C78.9801 73.3726 77.9109 69.8977 79.2474 67.0911L81.2521 63.2154C82.1877 61.2106 84.1924 60.1415 86.1971 60.1415C86.999 60.1415 87.9345 60.2751 88.7364 60.8097L101.834 67.4921V67.6257C102.903 68.1603 104.106 68.8286 105.309 69.3632C106.111 69.7641 106.913 69.8977 107.714 69.8977C109.719 69.8977 111.724 68.8286 112.659 66.8238L118.54 55.1965C119.609 53.3254 121.614 52.1226 123.618 52.1226ZM128.43 128.97C133.241 128.97 137.384 127.233 139.924 122.154C146.472 109.324 130.702 100.637 120.946 95.8254C120.144 95.4245 119.342 95.2908 118.54 95.2908C116.535 95.2908 114.53 96.36 113.595 98.3647L105.309 114.67C103.972 117.476 105.041 120.818 107.714 122.154C113.328 125.228 121.48 128.97 128.43 128.97ZM112.659 173.207C118.005 173.207 122.549 171.336 125.222 166.124C132.573 151.557 112.392 140.998 100.765 135.385C99.9628 134.984 99.1609 134.851 98.3591 134.851C96.3543 134.851 94.3496 135.92 93.4141 137.924L83.6578 156.769C82.3213 159.575 83.3905 162.917 86.0635 164.253C93.2804 167.995 103.972 173.207 112.659 173.207ZM123.618 48.1132C120.01 48.1132 116.669 50.1179 115.065 53.3254L109.185 64.9528C108.917 65.621 108.249 65.8883 107.714 65.8883C107.581 65.8883 107.313 65.8883 107.18 65.7547L103.705 64.0172L90.6075 57.3349C89.271 56.6666 87.8009 56.2657 86.1971 56.2657C82.5886 56.2657 79.2474 58.2704 77.6437 61.4779L75.6389 65.3537C74.4361 67.6257 74.3025 70.2987 75.1043 72.7044C75.9062 75.11 77.6437 77.1147 79.9157 78.3176C82.1877 79.3867 84.1924 80.5896 84.1924 80.5896L84.326 80.7232L84.4597 80.8569C84.9943 81.1242 87.9345 82.5943 87.1326 84.7327C86.999 84.8663 86.999 85.1336 86.999 85.2672C86.999 85.4009 86.999 85.4009 86.8653 85.5345L74.7034 109.457L57.1955 143.805C56.9282 144.34 56.7946 144.34 56.6609 144.34C56.26 144.34 55.5918 144.072 55.5918 144.072L55.4581 143.939L55.3245 143.805C55.3245 143.805 52.6515 142.468 50.1122 141.266C48.5084 140.464 46.771 140.063 44.8999 140.063C41.826 140.063 39.1531 141.399 37.5493 143.538L37.4157 143.671L37.282 143.805L33.9408 149.285C32.337 151.557 31.8025 154.363 32.4707 157.036C33.1389 159.843 34.8764 162.115 37.4157 163.451L48.5084 169.198C49.9786 170 51.4487 170.668 52.9188 171.47C53.7207 171.871 53.988 172.807 53.587 173.608L47.5729 185.503C45.1672 190.181 47.0383 196.061 51.716 198.467L54.7899 200.071C56.1264 200.739 57.5965 201.14 59.2003 201.14C62.8087 201.14 66.1499 199.135 67.7537 195.928L73.6342 184.434C73.9015 183.766 74.5697 183.498 75.1043 183.498C75.3716 183.498 75.6389 183.498 75.7726 183.632L76.3072 183.899C77.1091 184.3 77.3764 185.236 76.9754 186.038L71.0949 197.531C69.8921 199.803 69.7584 202.476 70.5603 204.882C71.3622 207.288 73.0996 209.292 75.3716 210.495L78.4455 212.099C79.782 212.767 81.2521 213.168 82.8559 213.168C86.4644 213.168 89.8056 211.163 91.4094 207.956L97.5572 195.794C97.8245 195.126 98.4927 194.992 99.0273 194.992C99.2946 194.992 99.4282 194.992 99.6955 195.126C109.585 199.135 117.471 200.873 124.554 200.873C136.716 200.873 146.071 195.393 153.155 184.033C161.174 171.47 161.574 159.843 154.491 149.819C154.09 149.285 154.224 148.75 154.224 148.483C154.357 148.215 154.491 147.681 155.159 147.413C162.243 144.607 167.589 138.994 170.93 130.44L171.865 127.901L171.732 127.767C176.008 113.868 169.861 101.439 152.887 89.8113C152.219 89.4103 152.085 88.4748 152.486 87.8065L158.634 75.7783C159.837 73.5062 159.971 70.8333 159.169 68.4276C158.367 66.022 156.629 64.0172 154.357 62.8144L151.284 61.2106C149.947 60.5424 148.477 60.1415 146.873 60.1415C143.265 60.1415 139.924 62.1462 138.32 65.3537L132.707 76.3128C132.439 76.9811 131.771 77.2484 131.236 77.2484C130.969 77.2484 130.702 77.2484 130.568 77.1147L130.435 76.8474C129.9 76.5801 129.766 76.1792 129.633 75.9119C129.499 75.6446 129.499 75.2437 129.766 74.7091L135.379 63.75C136.582 61.4779 136.716 58.805 135.914 56.3993C135.112 53.9937 133.375 51.9889 131.103 50.7861L128.029 49.1823C126.692 48.5141 125.222 48.1132 123.618 48.1132ZM128.43 124.961C122.282 124.961 114.664 121.352 109.452 118.679C108.65 118.278 108.383 117.343 108.784 116.541L117.07 100.236C117.337 99.5676 118.005 99.3003 118.54 99.3003C118.807 99.3003 119.074 99.3003 119.208 99.4339C123.485 101.572 134.845 107.052 137.117 113.868C137.785 115.873 137.652 118.011 136.449 120.283L136.315 120.417C134.711 123.624 132.306 124.961 128.43 124.961ZM112.659 169.198C104.106 169.198 92.3449 163.05 87.9345 160.778C87.1326 160.377 86.8653 159.442 87.2663 158.64L97.0226 139.662C97.2899 138.994 97.9581 138.726 98.4927 138.726C98.76 138.726 99.0273 138.726 99.1609 138.86C105.309 141.8 119.609 148.75 122.416 157.036C123.218 159.308 122.95 161.714 121.747 164.119C120.01 167.594 117.07 169.198 112.659 169.198Z" fill="#040404"/>
<path d="M167.321 128.837C173.202 114.002 164.782 102.642 150.883 93.019C150.883 93.019 175.474 119.214 153.823 143.538C159.57 141.4 164.247 136.856 167.321 128.837Z" fill="#FFC48E"/>
<path d="M149.814 181.894C157.565 169.732 156.897 160.11 151.284 152.091C151.284 152.091 149.546 199.402 101.166 191.25C121.748 199.402 138.32 200.204 149.814 181.894Z" fill="#FFC48E"/>
<path d="M155.293 73.907C156.763 71.1004 155.56 67.7592 152.887 66.4227L150.482 65.2198C150.482 65.2198 155.961 69.6302 150.883 78.5846C150.883 78.5846 146.873 85.668 148.611 88.0736C148.611 87.4054 148.878 86.6035 149.145 85.9353L155.293 73.907Z" fill="#FFC48E"/>
<path d="M125.623 74.4418C125.757 73.9072 125.891 73.3727 126.158 72.9717L131.771 62.0126C133.241 59.206 132.038 55.8648 129.365 54.5283L125.891 52.7909C126.692 53.9937 132.573 57.7359 128.697 66.1557C128.564 66.022 125.623 71.6352 125.623 74.4418Z" fill="#FFC48E"/>
<path d="M74.8369 199.269C73.3667 202.076 74.5696 205.417 77.2425 206.753L80.3164 208.357C83.123 209.827 86.4642 208.624 87.8007 205.951L93.9485 193.789C94.0821 193.923 79.3809 216.777 74.8369 199.269Z" fill="#FFC48E"/>
<path d="M64.4125 193.923L70.293 182.429C70.293 182.429 56.3936 205.417 51.315 187.241C49.8449 190.047 51.0477 193.388 53.7207 194.725L56.7946 196.329C59.6012 197.799 62.9424 196.73 64.4125 193.923Z" fill="#FFC48E"/>
</g>
<defs>
<clipPath id="clip0">
<rect width="225.998" height="255" fill="white" transform="translate(0.796143)"/>
</clipPath>
</defs>
</svg>
