<svg width="52" height="52" viewBox="0 0 52 52" fill="none" xmlns="http://www.w3.org/2000/svg">
<circle cx="26" cy="26" r="24.5" fill="#F7931A" stroke="white" stroke-width="3"/>
<path d="M36.1757 22.6897C36.6335 19.6289 34.303 17.9836 31.1161 16.886L32.15 12.7399L29.6258 12.111L28.6194 16.148C27.9558 15.9825 27.2744 15.8266 26.5971 15.672L27.6108 11.6084L25.0882 10.9795L24.0538 15.1243C23.5047 14.9992 22.9653 14.8757 22.442 14.7455L22.445 14.7325L18.9641 13.8633L18.2926 16.559C18.2926 16.559 20.1654 16.9882 20.1259 17.0146C21.148 17.2697 21.3329 17.9463 21.3022 18.4825L20.1245 23.2059C20.1949 23.2238 20.2862 23.2497 20.387 23.2901C20.3027 23.2692 20.2131 23.2464 20.1202 23.2241L18.4695 29.841C18.3446 30.1515 18.0275 30.6175 17.3129 30.4405C17.3382 30.4772 15.4783 29.9827 15.4783 29.9827L14.2251 32.8717L17.5099 33.6905C18.121 33.8437 18.7198 34.0041 19.3095 34.1548L18.265 38.3485L20.7862 38.9774L21.8206 34.8282C22.5094 35.0152 23.1778 35.1876 23.8322 35.3502L22.8013 39.4798L25.3255 40.1087L26.3699 35.9229C30.6742 36.7374 33.9106 36.409 35.2729 32.5163C36.3706 29.3822 35.2182 27.5744 32.9538 26.3956C34.6031 26.0152 35.8445 24.9303 36.1757 22.6897ZM30.4086 30.7757C29.6285 33.9098 24.3511 32.2157 22.64 31.7908L24.0261 26.2349C25.7371 26.662 31.2237 27.5072 30.4086 30.7757ZM31.1892 22.6443C30.4776 25.4951 26.0851 24.0467 24.6603 23.6916L25.9169 18.6527C27.3418 19.0079 31.9303 19.6707 31.1892 22.6443Z" fill="white"/>
</svg>
