<svg width="44" height="44" viewBox="0 0 44 44" fill="none" xmlns="http://www.w3.org/2000/svg">
<rect width="44" height="44" fill="white"/>
<path d="M32 10H12C10.8954 10 10 10.8954 10 12V32C10 33.1046 10.8954 34 12 34H32C33.1046 34 34 33.1046 34 32V12C34 10.8954 33.1046 10 32 10Z" stroke="#111111" stroke-width="2" stroke-linejoin="round"/>
<path d="M22 25.0832V22.4165C24.2091 22.4165 26 20.6256 26 18.4165C26 16.2074 24.2091 14.4165 22 14.4165C19.7909 14.4165 18 16.2074 18 18.4165" stroke="#111111" stroke-width="2" stroke-linecap="round" stroke-linejoin="round"/>
<path fill-rule="evenodd" clip-rule="evenodd" d="M22.0002 31.0833C22.9206 31.0833 23.6668 30.3371 23.6668 29.4167C23.6668 28.4962 22.9206 27.75 22.0002 27.75C21.0797 27.75 20.3335 28.4962 20.3335 29.4167C20.3335 30.3371 21.0797 31.0833 22.0002 31.0833Z" fill="#111111"/>
</svg>
