<svg width="16" height="16" viewBox="0 0 16 16" fill="none" xmlns="http://www.w3.org/2000/svg">
<path d="M8 16C10.2091 16 12.2091 15.1046 13.6568 13.6568C15.1046 12.2091 16 10.2091 16 8C16 5.79088 15.1046 3.79088 13.6568 2.34314C12.2091 0.895432 10.2091 0 8 0C5.79088 0 3.79088 0.895432 2.34314 2.34314C0.895432 3.79088 0 5.79088 0 8C0 10.2091 0.895432 12.2091 2.34314 13.6568C3.79088 15.1046 5.79088 16 8 16Z" fill="white"/>
<path d="M7.99658 2.99797C8.43956 2.99797 8.79867 3.35708 8.79867 3.80005C8.79867 4.24302 8.43956 4.60213 7.99658 4.60213C7.55361 4.60213 7.1945 4.24302 7.1945 3.80005C7.1945 3.35708 7.55361 2.99797 7.99658 2.99797Z" fill="#C3CCE5" stroke="#C3CCE5" stroke-width="0.395833"/>
<path d="M8.20186 11.9998V6.39978H7.80186H7.40186" stroke="#C3CCE5" stroke-width="1.1875" stroke-linecap="round" stroke-linejoin="round"/>
<path d="M6.80225 12H9.60225" stroke="#C3CCE5" stroke-width="1.1875" stroke-linecap="round" stroke-linejoin="round"/>
</svg>
