<svg width="26" height="26" viewBox="0 0 26 26" fill="none" xmlns="http://www.w3.org/2000/svg">
<path d="M23.4764 4.10278L19.7495 5.75576C19.6408 5.81523 19.5501 5.90284 19.4868 6.00941C19.4236 6.11598 19.3902 6.23759 19.3901 6.3615V19.688C19.3897 19.8132 19.4241 19.9362 19.4893 20.0431C19.5546 20.15 19.6482 20.2368 19.7597 20.2937L23.4866 21.9056C23.5397 21.9346 23.5995 21.9492 23.66 21.948C23.7205 21.9468 23.7796 21.9298 23.8315 21.8986C23.8834 21.8675 23.9263 21.8233 23.9558 21.7705C23.9854 21.7177 24.0006 21.6581 24 21.5976V4.41079C23.998 4.35018 23.9808 4.29106 23.9499 4.23891C23.9189 4.18677 23.8753 4.1433 23.823 4.11255C23.7708 4.08181 23.7116 4.06479 23.6509 4.06308C23.5903 4.06138 23.5303 4.07503 23.4764 4.10278ZM5.62732 5.73522L2.01336 4.09251C1.96026 4.06351 1.90049 4.04889 1.83999 4.05012C1.77949 4.05135 1.72037 4.06837 1.66848 4.0995C1.61659 4.13063 1.57375 4.17479 1.5442 4.2276C1.51465 4.2804 1.49942 4.34001 1.50002 4.40052V21.5874C1.50006 21.6496 1.51673 21.7108 1.54829 21.7645C1.57986 21.8182 1.62519 21.8625 1.6796 21.8929C1.734 21.9232 1.79552 21.9385 1.8578 21.9371C1.92008 21.9358 1.98087 21.9178 2.0339 21.8851L5.66839 19.9652C5.76877 19.904 5.85172 19.8181 5.90926 19.7156C5.9668 19.6131 5.99699 19.4975 5.99693 19.38V6.34097C5.99301 6.21665 5.95689 6.09547 5.8921 5.9893C5.82731 5.88312 5.73608 5.79557 5.62732 5.73522ZM16.962 10.2835L13.0708 8.05555C12.9663 7.99497 12.8477 7.96307 12.7269 7.96307C12.6061 7.96307 12.4875 7.99497 12.383 8.05555L8.41992 10.2629C8.3139 10.3246 8.22589 10.413 8.16465 10.5193C8.1034 10.6256 8.07106 10.746 8.07085 10.8687V15.3861C8.07085 15.6356 8.20432 15.8666 8.41992 15.9919L12.383 18.2711C12.5955 18.3943 12.8583 18.3943 13.0708 18.2711L16.962 16.0124C17.068 15.9507 17.156 15.8623 17.2173 15.7561C17.2785 15.6498 17.3109 15.5293 17.3111 15.4067V10.8892C17.3121 10.7663 17.2803 10.6453 17.2189 10.5389C17.1576 10.4324 17.0689 10.3442 16.962 10.2835Z" fill="white"/>
<path d="M23.4764 4.10278L19.7495 5.75576C19.6408 5.81523 19.5501 5.90284 19.4868 6.00941C19.4236 6.11598 19.3902 6.23759 19.3901 6.3615V19.688C19.3897 19.8132 19.4241 19.9362 19.4893 20.0431C19.5546 20.15 19.6482 20.2368 19.7597 20.2937L23.4866 21.9056C23.5397 21.9346 23.5995 21.9492 23.66 21.948C23.7205 21.9468 23.7796 21.9298 23.8315 21.8986C23.8834 21.8675 23.9263 21.8233 23.9558 21.7705C23.9854 21.7177 24.0006 21.6581 24 21.5976V4.41079C23.998 4.35018 23.9808 4.29106 23.9499 4.23891C23.9189 4.18677 23.8753 4.1433 23.823 4.11255C23.7708 4.08181 23.7116 4.06479 23.6509 4.06308C23.5903 4.06138 23.5303 4.07503 23.4764 4.10278ZM5.62732 5.73522L2.01336 4.09251C1.96026 4.06351 1.90049 4.04889 1.83999 4.05012C1.77949 4.05135 1.72037 4.06837 1.66848 4.0995C1.61659 4.13063 1.57375 4.17479 1.5442 4.2276C1.51465 4.2804 1.49942 4.34001 1.50002 4.40052V21.5874C1.50006 21.6496 1.51673 21.7108 1.54829 21.7645C1.57986 21.8182 1.62519 21.8625 1.6796 21.8929C1.734 21.9232 1.79552 21.9385 1.8578 21.9371C1.92008 21.9358 1.98087 21.9178 2.0339 21.8851L5.66839 19.9652C5.76877 19.904 5.85172 19.8181 5.90926 19.7156C5.9668 19.6131 5.99699 19.4975 5.99693 19.38V6.34097C5.99301 6.21665 5.95689 6.09547 5.8921 5.9893C5.82731 5.88312 5.73608 5.79557 5.62732 5.73522ZM16.962 10.2835L13.0708 8.05555C12.9663 7.99497 12.8477 7.96307 12.7269 7.96307C12.6061 7.96307 12.4875 7.99497 12.383 8.05555L8.41992 10.2629C8.3139 10.3246 8.22589 10.413 8.16465 10.5193C8.1034 10.6256 8.07106 10.746 8.07085 10.8687V15.3861C8.07085 15.6356 8.20432 15.8666 8.41992 15.9919L12.383 18.2711C12.5955 18.3943 12.8583 18.3943 13.0708 18.2711L16.962 16.0124C17.068 15.9507 17.156 15.8623 17.2173 15.7561C17.2785 15.6498 17.3109 15.5293 17.3111 15.4067V10.8892C17.3121 10.7663 17.2803 10.6453 17.2189 10.5389C17.1576 10.4324 17.0689 10.3442 16.962 10.2835Z" fill="url(#paint0_linear)"/>
<defs>
<linearGradient id="paint0_linear" x1="12.75" y1="4.05005" x2="12.75" y2="39.5975" gradientUnits="userSpaceOnUse">
<stop stop-color="#5BBEF6"/>
<stop offset="1" stop-color="#4671E1"/>
</linearGradient>
</defs>
</svg>
