<svg width="24" height="24" viewBox="0 0 24 24" fill="none" xmlns="http://www.w3.org/2000/svg">
<rect opacity="0.01" width="24" height="24" fill="black"/>
<path fill-rule="evenodd" clip-rule="evenodd" d="M0.996094 11.7705C0.996094 17.8478 5.92271 22.7744 12 22.7744C18.0773 22.7744 23.0039 17.8478 23.0039 11.7705C23.0039 5.69322 18.0773 0.766602 12 0.766602C5.92271 0.766602 0.996094 5.69322 0.996094 11.7705Z" fill="#FF6F61"/>
<path fill-rule="evenodd" clip-rule="evenodd" d="M12.9609 6.71484C12.9609 6.18281 12.5297 5.75391 12 5.75391C11.4703 5.75391 11.0391 6.18516 11.0391 6.71484V13.1859C11.0391 13.718 11.4703 14.1469 12 14.1469C12.532 14.1469 12.9609 13.7156 12.9609 13.1859V6.71484ZM12.9609 16.7017C12.9609 16.1696 12.5297 15.7407 12 15.7407C11.4703 15.7407 11.0391 16.172 11.0391 16.7017C11.0391 17.2337 11.4703 17.6626 12 17.6626C12.532 17.6626 12.9609 17.2313 12.9609 16.7017Z" fill="white"/>
</svg>
