<svg width="24" height="24" viewBox="0 0 24 24" fill="none" xmlns="http://www.w3.org/2000/svg">
<rect x="4.5" y="6" width="14.5" height="11.5" fill="white"/>
<path fill-rule="evenodd" clip-rule="evenodd" d="M1 12C1 5.92486 5.92486 1 12 1C18.0751 1 23 5.92486 23 12C23 18.0751 18.0751 23 12 23C5.92486 23 1 18.0751 1 12ZM11.0574 16.1245L17.7871 9.39471C18.2066 8.9752 18.2066 8.29504 17.7871 7.87555C17.3676 7.45602 16.6874 7.45604 16.2679 7.87555L10.2978 13.8457L7.73228 11.2802C7.31275 10.8607 6.63259 10.8607 6.21308 11.2802C5.79355 11.6997 5.79357 12.3799 6.21308 12.7994L9.53759 16.1239L9.53819 16.1245C9.74794 16.3342 10.0229 16.4391 10.2978 16.4391C10.5727 16.4391 10.8476 16.3342 11.0574 16.1245Z" fill="#04D2A0"/>
</svg>
