<svg width="72" height="72" viewBox="0 0 72 72" fill="none" xmlns="http://www.w3.org/2000/svg">
<path d="M72 0H0V72H72V0Z" fill="white" fill-opacity="0.01"/>
<path fill-rule="evenodd" clip-rule="evenodd" d="M37.3305 4.18418C36.5404 3.60788 35.4686 3.60788 34.6785 4.18418L27.393 9.49862L18.3752 9.48145C17.3973 9.47959 16.5302 10.1096 16.2298 11.0402L13.4594 19.6221L6.15376 24.9087C5.36152 25.482 5.0303 26.5014 5.33426 27.4309L8.13725 36.002L5.33426 44.573C5.0303 45.5025 5.36152 46.5219 6.15376 47.0952L13.4594 52.3818L16.2298 60.9636C16.5302 61.8942 17.3973 62.5242 18.3752 62.5224L27.393 62.5053L34.6785 67.8197C35.4686 68.396 36.5404 68.396 37.3305 67.8197L44.616 62.5053L53.6338 62.5224C54.6117 62.5242 55.4788 61.8942 55.7793 60.9636L58.5496 52.3818L65.8552 47.0952C66.6474 46.5219 66.9787 45.5025 66.6747 44.573L63.8718 36.0019L66.6747 27.4309C66.9787 26.5014 66.6474 25.482 65.8552 24.9087L58.5496 19.6221L55.7793 11.0402C55.4788 10.1096 54.6117 9.47959 53.6338 9.48145L44.616 9.49862L37.3305 4.18418Z" fill="url(#paint0_linear)"/>
<path d="M25.5034 36.0017L33.0034 43.5017L48.0034 28.5017" stroke="white" stroke-width="4.5" stroke-linecap="round" stroke-linejoin="round"/>
<defs>
<linearGradient id="paint0_linear" x1="5.22266" y1="36.002" x2="66.7863" y2="36.002" gradientUnits="userSpaceOnUse">
<stop stop-color="#00F5A0"/>
<stop offset="1" stop-color="#00D9F5"/>
</linearGradient>
</defs>
</svg>
