<svg width="90" height="90" viewBox="0 0 90 90" fill="none" xmlns="http://www.w3.org/2000/svg">
<rect width="90" height="90" fill="white"/>
<g filter="url(#filter0_d)">
<circle cx="24.3555" cy="18.0411" r="6.0411" fill="url(#paint0_radial)"/>
<circle cx="67.5079" cy="18.0411" r="6.0411" fill="url(#paint1_radial)"/>
<rect x="20.041" y="24.0824" width="8.63014" height="5.17808" fill="#FF8201"/>
<rect x="20.041" y="24.0824" width="8.63014" height="5.17808" fill="url(#paint2_radial)"/>
<rect x="63.1934" y="24.0824" width="8.63014" height="5.17808" fill="#FF8201"/>
<rect x="63.1934" y="24.0824" width="8.63014" height="5.17808" fill="url(#paint3_radial)"/>
<rect x="20.9043" y="30.1235" width="6.0411" height="48.3288" fill="#D6D6D6"/>
<rect x="64.0547" y="30.1235" width="6.0411" height="48.3288" fill="#D6D6D6"/>
<g filter="url(#filter1_d)">
<mask id="mask0" mask-type="alpha" maskUnits="userSpaceOnUse" x="14" y="29" width="63" height="16">
<rect x="14" y="29.26" width="63" height="15.5342" rx="0.863014" fill="#C4C4C4"/>
</mask>
<g mask="url(#mask0)">
<rect x="18.1172" y="18.0411" width="6.90411" height="22.4384" transform="rotate(26.9135 18.1172 18.0411)" fill="#F4F4F4"/>
<rect x="21.5684" y="25.8081" width="6.90411" height="22.4384" transform="rotate(26.9135 21.5684 25.8081)" fill="#3E4050"/>
<rect x="21.5684" y="25.8081" width="6.90411" height="22.4384" transform="rotate(26.9135 21.5684 25.8081)" fill="url(#paint4_linear)" fill-opacity="0.18" style="mix-blend-mode:color-burn"/>
<rect x="21.5684" y="25.8081" width="6.90411" height="22.4384" transform="rotate(26.9135 21.5684 25.8081)" fill="#2C3137"/>
<rect x="28.4727" y="25.8081" width="6.90411" height="22.4384" transform="rotate(26.9135 28.4727 25.8081)" fill="#F4F4F4"/>
<rect x="35.375" y="25.8081" width="6.90411" height="22.4384" transform="rotate(26.9135 35.375 25.8081)" fill="#3E4050"/>
<rect x="35.375" y="25.8081" width="6.90411" height="22.4384" transform="rotate(26.9135 35.375 25.8081)" fill="url(#paint5_linear)" fill-opacity="0.18" style="mix-blend-mode:color-burn"/>
<rect x="35.375" y="25.8081" width="6.90411" height="22.4384" transform="rotate(26.9135 35.375 25.8081)" fill="#2C3137"/>
<rect x="42.2812" y="25.8081" width="6.90411" height="22.4384" transform="rotate(26.9135 42.2812 25.8081)" fill="#F4F4F4"/>
<rect x="49.1855" y="25.8081" width="6.90411" height="22.4384" transform="rotate(26.9135 49.1855 25.8081)" fill="#3E4050"/>
<rect x="49.1855" y="25.8081" width="6.90411" height="22.4384" transform="rotate(26.9135 49.1855 25.8081)" fill="url(#paint6_linear)" fill-opacity="0.18" style="mix-blend-mode:color-burn"/>
<rect x="49.1855" y="25.8081" width="6.90411" height="22.4384" transform="rotate(26.9135 49.1855 25.8081)" fill="#2C3137"/>
<rect x="56.0879" y="25.8081" width="6.90411" height="22.4384" transform="rotate(26.9135 56.0879 25.8081)" fill="#F4F4F4"/>
<rect x="62.9922" y="25.8081" width="6.90411" height="22.4384" transform="rotate(26.9135 62.9922 25.8081)" fill="#3E4050"/>
<rect x="62.9922" y="25.8081" width="6.90411" height="22.4384" transform="rotate(26.9135 62.9922 25.8081)" fill="url(#paint7_linear)" fill-opacity="0.18" style="mix-blend-mode:color-burn"/>
<rect x="62.9922" y="25.8081" width="6.90411" height="22.4384" transform="rotate(26.9135 62.9922 25.8081)" fill="#2C3137"/>
<rect x="69.8984" y="25.8081" width="6.90411" height="22.4384" transform="rotate(26.9135 69.8984 25.8081)" fill="#F4F4F4"/>
<rect x="76.8008" y="25.8081" width="6.90411" height="22.4384" transform="rotate(26.9135 76.8008 25.8081)" fill="#3E4050"/>
<rect x="76.8008" y="25.8081" width="6.90411" height="22.4384" transform="rotate(26.9135 76.8008 25.8081)" fill="url(#paint8_linear)" fill-opacity="0.18" style="mix-blend-mode:color-burn"/>
<rect x="76.8008" y="25.8081" width="6.90411" height="22.4384" transform="rotate(26.9135 76.8008 25.8081)" fill="#2C3137"/>
<rect x="83.7051" y="25.8081" width="6.90411" height="22.4384" transform="rotate(26.9135 83.7051 25.8081)" fill="#F4F4F4"/>
</g>
</g>
<g filter="url(#filter2_d)">
<circle cx="24.3552" cy="32.7137" r="0.863014" fill="url(#paint9_radial)"/>
<circle cx="67.5056" cy="32.7127" r="0.863014" fill="url(#paint10_radial)"/>
<circle cx="24.3552" cy="41.3432" r="0.863014" fill="url(#paint11_radial)"/>
<circle cx="67.5056" cy="41.3432" r="0.863014" fill="url(#paint12_radial)"/>
</g>
<g filter="url(#filter3_d)">
<mask id="mask1" mask-type="alpha" maskUnits="userSpaceOnUse" x="14" y="51" width="63" height="17">
<rect x="14" y="51.6989" width="63" height="15.5342" rx="0.863014" fill="#C4C4C4"/>
</mask>
<g mask="url(#mask1)">
<rect x="18.1172" y="40.4791" width="6.90411" height="22.4384" transform="rotate(26.9135 18.1172 40.4791)" fill="#F4F4F4"/>
<rect x="21.5684" y="48.2462" width="6.90411" height="22.4384" transform="rotate(26.9135 21.5684 48.2462)" fill="#3E4050"/>
<rect x="21.5684" y="48.2462" width="6.90411" height="22.4384" transform="rotate(26.9135 21.5684 48.2462)" fill="url(#paint13_linear)" fill-opacity="0.18" style="mix-blend-mode:color-burn"/>
<rect x="21.5684" y="48.2462" width="6.90411" height="22.4384" transform="rotate(26.9135 21.5684 48.2462)" fill="#2C3137"/>
<rect x="28.4727" y="48.2462" width="6.90411" height="22.4384" transform="rotate(26.9135 28.4727 48.2462)" fill="#F4F4F4"/>
<rect x="35.375" y="48.2462" width="6.90411" height="22.4384" transform="rotate(26.9135 35.375 48.2462)" fill="#3E4050"/>
<rect x="35.375" y="48.2462" width="6.90411" height="22.4384" transform="rotate(26.9135 35.375 48.2462)" fill="url(#paint14_linear)" fill-opacity="0.18" style="mix-blend-mode:color-burn"/>
<rect x="35.375" y="48.2462" width="6.90411" height="22.4384" transform="rotate(26.9135 35.375 48.2462)" fill="#2C3137"/>
<rect x="42.2812" y="48.2462" width="6.90411" height="22.4384" transform="rotate(26.9135 42.2812 48.2462)" fill="#F4F4F4"/>
<rect x="49.1855" y="48.2462" width="6.90411" height="22.4384" transform="rotate(26.9135 49.1855 48.2462)" fill="#3E4050"/>
<rect x="49.1855" y="48.2462" width="6.90411" height="22.4384" transform="rotate(26.9135 49.1855 48.2462)" fill="url(#paint15_linear)" fill-opacity="0.18" style="mix-blend-mode:color-burn"/>
<rect x="49.1855" y="48.2462" width="6.90411" height="22.4384" transform="rotate(26.9135 49.1855 48.2462)" fill="#2C3137"/>
<rect x="56.0879" y="48.2462" width="6.90411" height="22.4384" transform="rotate(26.9135 56.0879 48.2462)" fill="#F4F4F4"/>
<rect x="62.9922" y="48.2462" width="6.90411" height="22.4384" transform="rotate(26.9135 62.9922 48.2462)" fill="#3E4050"/>
<rect x="62.9922" y="48.2462" width="6.90411" height="22.4384" transform="rotate(26.9135 62.9922 48.2462)" fill="url(#paint16_linear)" fill-opacity="0.18" style="mix-blend-mode:color-burn"/>
<rect x="62.9922" y="48.2462" width="6.90411" height="22.4384" transform="rotate(26.9135 62.9922 48.2462)" fill="#2C3137"/>
<rect x="69.8984" y="48.2462" width="6.90411" height="22.4384" transform="rotate(26.9135 69.8984 48.2462)" fill="#F4F4F4"/>
<rect x="76.8008" y="48.2462" width="6.90411" height="22.4384" transform="rotate(26.9135 76.8008 48.2462)" fill="#3E4050"/>
<rect x="76.8008" y="48.2462" width="6.90411" height="22.4384" transform="rotate(26.9135 76.8008 48.2462)" fill="url(#paint17_linear)" fill-opacity="0.18" style="mix-blend-mode:color-burn"/>
<rect x="76.8008" y="48.2462" width="6.90411" height="22.4384" transform="rotate(26.9135 76.8008 48.2462)" fill="#2C3137"/>
<rect x="83.7051" y="48.2462" width="6.90411" height="22.4384" transform="rotate(26.9135 83.7051 48.2462)" fill="#F4F4F4"/>
</g>
</g>
<g filter="url(#filter4_d)">
<circle cx="24.3552" cy="55.1515" r="0.863014" fill="url(#paint18_radial)"/>
<circle cx="67.5056" cy="55.1512" r="0.863014" fill="url(#paint19_radial)"/>
<circle cx="24.3552" cy="63.7817" r="0.863014" fill="url(#paint20_radial)"/>
<circle cx="67.5056" cy="63.7817" r="0.863014" fill="url(#paint21_radial)"/>
</g>
</g>
<defs>
<filter id="filter0_d" x="12.274" y="11.137" width="66.4521" height="69.9044" filterUnits="userSpaceOnUse" color-interpolation-filters="sRGB">
<feFlood flood-opacity="0" result="BackgroundImageFix"/>
<feColorMatrix in="SourceAlpha" type="matrix" values="0 0 0 0 0 0 0 0 0 0 0 0 0 0 0 0 0 0 127 0"/>
<feOffset dy="0.863014"/>
<feGaussianBlur stdDeviation="0.863014"/>
<feColorMatrix type="matrix" values="0 0 0 0 0 0 0 0 0 0 0 0 0 0 0 0 0 0 0.04 0"/>
<feBlend mode="normal" in2="BackgroundImageFix" result="effect1_dropShadow"/>
<feBlend mode="normal" in="SourceGraphic" in2="effect1_dropShadow" result="shape"/>
</filter>
<filter id="filter1_d" x="12.274" y="28.397" width="66.4521" height="18.9863" filterUnits="userSpaceOnUse" color-interpolation-filters="sRGB">
<feFlood flood-opacity="0" result="BackgroundImageFix"/>
<feColorMatrix in="SourceAlpha" type="matrix" values="0 0 0 0 0 0 0 0 0 0 0 0 0 0 0 0 0 0 127 0"/>
<feOffset dy="0.863014"/>
<feGaussianBlur stdDeviation="0.863014"/>
<feColorMatrix type="matrix" values="0 0 0 0 0.0666667 0 0 0 0 0.0925714 0 0 0 0 0.133333 0 0 0 0.1 0"/>
<feBlend mode="normal" in2="BackgroundImageFix" result="effect1_dropShadow"/>
<feBlend mode="normal" in="SourceGraphic" in2="effect1_dropShadow" result="shape"/>
</filter>
<filter id="filter2_d" x="22.6292" y="31.8497" width="46.6024" height="12.0825" filterUnits="userSpaceOnUse" color-interpolation-filters="sRGB">
<feFlood flood-opacity="0" result="BackgroundImageFix"/>
<feColorMatrix in="SourceAlpha" type="matrix" values="0 0 0 0 0 0 0 0 0 0 0 0 0 0 0 0 0 0 127 0"/>
<feOffset dy="0.863014"/>
<feGaussianBlur stdDeviation="0.431507"/>
<feColorMatrix type="matrix" values="0 0 0 0 0.00392157 0 0 0 0 0.00392157 0 0 0 0 0.00392157 0 0 0 0.12 0"/>
<feBlend mode="normal" in2="BackgroundImageFix" result="effect1_dropShadow"/>
<feBlend mode="normal" in="SourceGraphic" in2="effect1_dropShadow" result="shape"/>
</filter>
<filter id="filter3_d" x="12.274" y="50.8358" width="66.4521" height="18.9863" filterUnits="userSpaceOnUse" color-interpolation-filters="sRGB">
<feFlood flood-opacity="0" result="BackgroundImageFix"/>
<feColorMatrix in="SourceAlpha" type="matrix" values="0 0 0 0 0 0 0 0 0 0 0 0 0 0 0 0 0 0 127 0"/>
<feOffset dy="0.863014"/>
<feGaussianBlur stdDeviation="0.863014"/>
<feColorMatrix type="matrix" values="0 0 0 0 0.0666667 0 0 0 0 0.0925714 0 0 0 0 0.133333 0 0 0 0.1 0"/>
<feBlend mode="normal" in2="BackgroundImageFix" result="effect1_dropShadow"/>
<feBlend mode="normal" in="SourceGraphic" in2="effect1_dropShadow" result="shape"/>
</filter>
<filter id="filter4_d" x="22.6292" y="54.2882" width="46.6024" height="12.0825" filterUnits="userSpaceOnUse" color-interpolation-filters="sRGB">
<feFlood flood-opacity="0" result="BackgroundImageFix"/>
<feColorMatrix in="SourceAlpha" type="matrix" values="0 0 0 0 0 0 0 0 0 0 0 0 0 0 0 0 0 0 127 0"/>
<feOffset dy="0.863014"/>
<feGaussianBlur stdDeviation="0.431507"/>
<feColorMatrix type="matrix" values="0 0 0 0 0.00392157 0 0 0 0 0.00392157 0 0 0 0 0.00392157 0 0 0 0.12 0"/>
<feBlend mode="normal" in2="BackgroundImageFix" result="effect1_dropShadow"/>
<feBlend mode="normal" in="SourceGraphic" in2="effect1_dropShadow" result="shape"/>
</filter>
<radialGradient id="paint0_radial" cx="0" cy="0" r="1" gradientUnits="userSpaceOnUse" gradientTransform="translate(24.3555 18.0411) rotate(90) scale(6.0411)">
<stop stop-color="#FFE81A"/>
<stop offset="0.255208" stop-color="#FFE81A"/>
<stop offset="0.822917" stop-color="#FF891D"/>
<stop offset="1" stop-color="#FF7A00"/>
</radialGradient>
<radialGradient id="paint1_radial" cx="0" cy="0" r="1" gradientUnits="userSpaceOnUse" gradientTransform="translate(67.5079 18.0411) rotate(90) scale(6.0411)">
<stop stop-color="#FFE81A"/>
<stop offset="0.255208" stop-color="#FFE81A"/>
<stop offset="0.822917" stop-color="#FF891D"/>
<stop offset="1" stop-color="#FF7A00"/>
</radialGradient>
<radialGradient id="paint2_radial" cx="0" cy="0" r="1" gradientUnits="userSpaceOnUse" gradientTransform="translate(24.3561 24.0824) rotate(90) scale(5.17808 8.63014)">
<stop stop-color="#FFDE01" stop-opacity="0.46"/>
<stop offset="1" stop-color="#ED6400"/>
</radialGradient>
<radialGradient id="paint3_radial" cx="0" cy="0" r="1" gradientUnits="userSpaceOnUse" gradientTransform="translate(67.5084 24.0824) rotate(90) scale(5.17808 8.63014)">
<stop stop-color="#FFDE01" stop-opacity="0.46"/>
<stop offset="1" stop-color="#ED6400"/>
</radialGradient>
<linearGradient id="paint4_linear" x1="21.5684" y1="25.8081" x2="36.2919" y2="33.4535" gradientUnits="userSpaceOnUse">
<stop stop-color="#1C2654"/>
<stop offset="1"/>
</linearGradient>
<linearGradient id="paint5_linear" x1="35.375" y1="25.8081" x2="50.0986" y2="33.4535" gradientUnits="userSpaceOnUse">
<stop stop-color="#1C2654"/>
<stop offset="1"/>
</linearGradient>
<linearGradient id="paint6_linear" x1="49.1855" y1="25.8081" x2="63.9091" y2="33.4535" gradientUnits="userSpaceOnUse">
<stop stop-color="#1C2654"/>
<stop offset="1"/>
</linearGradient>
<linearGradient id="paint7_linear" x1="62.9922" y1="25.8081" x2="77.7158" y2="33.4535" gradientUnits="userSpaceOnUse">
<stop stop-color="#1C2654"/>
<stop offset="1"/>
</linearGradient>
<linearGradient id="paint8_linear" x1="76.8008" y1="25.8081" x2="91.5244" y2="33.4535" gradientUnits="userSpaceOnUse">
<stop stop-color="#1C2654"/>
<stop offset="1"/>
</linearGradient>
<radialGradient id="paint9_radial" cx="0" cy="0" r="1" gradientUnits="userSpaceOnUse" gradientTransform="translate(24.3552 32.2822) rotate(90) scale(1.29452)">
<stop stop-color="white"/>
<stop offset="1" stop-color="#B1B1B1"/>
</radialGradient>
<radialGradient id="paint10_radial" cx="0" cy="0" r="1" gradientUnits="userSpaceOnUse" gradientTransform="translate(67.5056 32.2812) rotate(90) scale(1.29452)">
<stop stop-color="white"/>
<stop offset="1" stop-color="#B1B1B1"/>
</radialGradient>
<radialGradient id="paint11_radial" cx="0" cy="0" r="1" gradientUnits="userSpaceOnUse" gradientTransform="translate(24.3552 40.9117) rotate(90) scale(1.29452)">
<stop stop-color="white"/>
<stop offset="1" stop-color="#B1B1B1"/>
</radialGradient>
<radialGradient id="paint12_radial" cx="0" cy="0" r="1" gradientUnits="userSpaceOnUse" gradientTransform="translate(67.5056 40.9117) rotate(90) scale(1.29452)">
<stop stop-color="white"/>
<stop offset="1" stop-color="#B1B1B1"/>
</radialGradient>
<linearGradient id="paint13_linear" x1="21.5684" y1="48.2462" x2="36.2919" y2="55.8916" gradientUnits="userSpaceOnUse">
<stop stop-color="#1C2654"/>
<stop offset="1"/>
</linearGradient>
<linearGradient id="paint14_linear" x1="35.375" y1="48.2462" x2="50.0986" y2="55.8916" gradientUnits="userSpaceOnUse">
<stop stop-color="#1C2654"/>
<stop offset="1"/>
</linearGradient>
<linearGradient id="paint15_linear" x1="49.1855" y1="48.2462" x2="63.9091" y2="55.8916" gradientUnits="userSpaceOnUse">
<stop stop-color="#1C2654"/>
<stop offset="1"/>
</linearGradient>
<linearGradient id="paint16_linear" x1="62.9922" y1="48.2462" x2="77.7158" y2="55.8916" gradientUnits="userSpaceOnUse">
<stop stop-color="#1C2654"/>
<stop offset="1"/>
</linearGradient>
<linearGradient id="paint17_linear" x1="76.8008" y1="48.2462" x2="91.5244" y2="55.8916" gradientUnits="userSpaceOnUse">
<stop stop-color="#1C2654"/>
<stop offset="1"/>
</linearGradient>
<radialGradient id="paint18_radial" cx="0" cy="0" r="1" gradientUnits="userSpaceOnUse" gradientTransform="translate(24.3552 54.72) rotate(90) scale(1.29452)">
<stop stop-color="white"/>
<stop offset="1" stop-color="#B1B1B1"/>
</radialGradient>
<radialGradient id="paint19_radial" cx="0" cy="0" r="1" gradientUnits="userSpaceOnUse" gradientTransform="translate(67.5056 54.7197) rotate(90) scale(1.29452)">
<stop stop-color="white"/>
<stop offset="1" stop-color="#B1B1B1"/>
</radialGradient>
<radialGradient id="paint20_radial" cx="0" cy="0" r="1" gradientUnits="userSpaceOnUse" gradientTransform="translate(24.3552 63.3502) rotate(90) scale(1.29452)">
<stop stop-color="white"/>
<stop offset="1" stop-color="#B1B1B1"/>
</radialGradient>
<radialGradient id="paint21_radial" cx="0" cy="0" r="1" gradientUnits="userSpaceOnUse" gradientTransform="translate(67.5056 63.3502) rotate(90) scale(1.29452)">
<stop stop-color="white"/>
<stop offset="1" stop-color="#B1B1B1"/>
</radialGradient>
</defs>
</svg>
