<svg width="40" height="40" viewBox="0 0 40 40" fill="none" xmlns="http://www.w3.org/2000/svg">
<circle opacity="0.1" cx="20" cy="20" r="20" fill="#C4C4C4"/>
<path d="M31 9H9V31H31V9Z" fill="white" fill-opacity="0.01"/>
<path d="M14.7992 17.2C16.1992 17.2 17.2992 16.1 17.2992 14.7C17.2992 13.3 16.0992 12.2 14.7992 12.2C13.4992 12.2 12.1992 13.4 12.1992 14.7C12.1992 16 13.3992 17.2 14.7992 17.2Z" stroke="#151516" stroke-width="1.375" stroke-linecap="round" stroke-linejoin="round"/>
<path d="M25.1992 27.7C26.5992 27.7 27.6992 26.6 27.6992 25.2C27.6992 23.8 26.5992 22.7 25.1992 22.7C23.7992 22.7 22.6992 23.8 22.6992 25.2C22.6992 26.6 23.8992 27.7 25.1992 27.7Z" stroke="#151516" stroke-width="1.375" stroke-linecap="round" stroke-linejoin="round"/>
<path d="M27.7992 12.2L12.1992 27.7" stroke="#151516" stroke-width="1.375" stroke-linecap="round" stroke-linejoin="round"/>
</svg>
